{"glyphs":{"0":{"ha":521,"x_min":0,"x_max":434,"o":"m 87 868 l 347 868 l 347 781 l 87 781 l 87 868 m 0 781 l 87 781 l 87 347 l 174 347 l 174 174 l 87 174 l 87 87 l 0 87 l 0 781 m 347 781 l 434 781 l 434 87 l 347 87 l 347 521 l 260 521 l 260 694 l 347 694 l 347 781 m 174 521 l 260 521 l 260 347 l 174 347 l 174 521 m 87 87 l 347 87 l 347 0 l 87 0 l 87 87 z "},"1":{"ha":521,"x_min":0,"x_max":434,"o":"m 174 868 l 260 868 l 260 87 l 434 87 l 434 0 l 0 0 l 0 87 l 174 87 l 174 694 l 87 694 l 87 781 l 174 781 l 174 868 m 0 694 l 87 694 l 87 608 l 0 608 l 0 694 z "},"2":{"ha":521,"x_min":0,"x_max":434,"o":"m 0 868 l 347 868 l 347 781 l 0 781 l 0 868 m 347 781 l 434 781 l 434 434 l 347 434 l 347 781 m 260 434 l 347 434 l 347 347 l 260 347 l 260 434 m 87 347 l 260 347 l 260 260 l 87 260 l 87 347 m 0 260 l 87 260 l 87 87 l 434 87 l 434 0 l 0 0 l 0 260 z "},"3":{"ha":521,"x_min":0,"x_max":434,"o":"m 0 868 l 347 868 l 347 781 l 0 781 l 0 868 m 347 781 l 434 781 l 434 521 l 347 521 l 347 781 m 87 521 l 347 521 l 347 434 l 87 434 l 87 521 m 347 434 l 434 434 l 434 87 l 347 87 l 347 434 m 0 87 l 347 87 l 347 0 l 0 0 l 0 87 z "},"4":{"ha":521,"x_min":0,"x_max":434,"o":"m 174 868 l 347 868 l 347 347 l 434 347 l 434 260 l 347 260 l 347 0 l 260 0 l 260 260 l 0 260 l 0 521 l 87 521 l 87 347 l 260 347 l 260 694 l 174 694 l 174 868 m 87 694 l 174 694 l 174 521 l 87 521 l 87 694 z "},"5":{"ha":521,"x_min":0,"x_max":434,"o":"m 0 868 l 434 868 l 434 781 l 87 781 l 87 521 l 347 521 l 347 434 l 0 434 l 0 868 m 347 434 l 434 434 l 434 87 l 347 87 l 347 434 m 0 87 l 347 87 l 347 0 l 0 0 l 0 87 z "},"6":{"ha":521,"x_min":0,"x_max":434,"o":"m 174 868 l 347 868 l 347 781 l 174 781 l 174 868 m 87 781 l 174 781 l 174 694 l 87 694 l 87 781 m 0 694 l 87 694 l 87 434 l 174 434 l 174 347 l 87 347 l 87 87 l 0 87 l 0 694 m 174 521 l 347 521 l 347 434 l 174 434 l 174 521 m 347 434 l 434 434 l 434 87 l 347 87 l 347 434 m 87 87 l 347 87 l 347 0 l 87 0 l 87 87 z "},"7":{"ha":521,"x_min":0,"x_max":434,"o":"m 0 868 l 434 868 l 434 521 l 347 521 l 347 781 l 0 781 l 0 868 m 260 521 l 347 521 l 347 260 l 260 260 l 260 521 m 174 260 l 260 260 l 260 0 l 174 0 l 174 260 z "},"8":{"ha":521,"x_min":0,"x_max":434,"o":"m 87 868 l 347 868 l 347 781 l 87 781 l 87 868 m 0 781 l 87 781 l 87 521 l 0 521 l 0 781 m 347 781 l 434 781 l 434 521 l 347 521 l 347 781 m 87 521 l 347 521 l 347 434 l 87 434 l 87 521 m 0 434 l 87 434 l 87 87 l 0 87 l 0 434 m 347 434 l 434 434 l 434 87 l 347 87 l 347 434 m 87 87 l 347 87 l 347 0 l 87 0 l 87 87 z "},"9":{"ha":521,"x_min":0,"x_max":434,"o":"m 87 868 l 347 868 l 347 781 l 87 781 l 87 868 m 0 781 l 87 781 l 87 347 l 0 347 l 0 781 m 347 781 l 434 781 l 434 174 l 347 174 l 347 347 l 260 347 l 260 434 l 347 434 l 347 781 m 87 347 l 260 347 l 260 260 l 87 260 l 87 347 m 260 174 l 347 174 l 347 87 l 260 87 l 260 174 m 0 87 l 260 87 l 260 0 l 0 0 l 0 87 z "}," ":{"ha":260,"x_min":0,"x_max":0,"o":""},"!":{"ha":174,"x_min":0,"x_max":87,"o":"m 0 868 l 87 868 l 87 174 l 0 174 l 0 868 m 0 87 l 87 87 l 87 0 l 0 0 l 0 87 z "},"\"":{"ha":347,"x_min":0,"x_max":260,"o":"m 0 868 l 87 868 l 87 608 l 0 608 l 0 868 m 174 868 l 260 868 l 260 608 l 174 608 l 174 868 z "},"#":{"ha":868,"x_min":0,"x_max":781,"o":"m 260 868 l 347 868 l 347 694 l 521 694 l 521 868 l 608 868 l 608 694 l 781 694 l 781 608 l 608 608 l 608 434 l 521 434 l 521 608 l 347 608 l 347 434 l 260 434 l 260 608 l 87 608 l 87 694 l 260 694 l 260 868 m 174 434 l 260 434 l 260 260 l 434 260 l 434 434 l 521 434 l 521 260 l 694 260 l 694 174 l 521 174 l 521 0 l 434 0 l 434 174 l 260 174 l 260 0 l 174 0 l 174 174 l 0 174 l 0 260 l 174 260 l 174 434 z "},"$":{"ha":694,"x_min":0,"x_max":608,"o":"m 260 955 l 347 955 l 347 868 l 521 868 l 521 781 l 347 781 l 347 521 l 521 521 l 521 434 l 347 434 l 347 87 l 521 87 l 521 0 l 347 0 l 347 -87 l 260 -87 l 260 0 l 0 0 l 0 87 l 260 87 l 260 434 l 87 434 l 87 521 l 260 521 l 260 781 l 87 781 l 87 868 l 260 868 l 260 955 m 0 781 l 87 781 l 87 521 l 0 521 l 0 781 m 521 434 l 608 434 l 608 87 l 521 87 l 521 434 z "},"%":{"ha":608,"x_min":0,"x_max":521,"o":"m 87 694 l 174 694 l 174 608 l 87 608 l 87 694 m 0 608 l 87 608 l 87 521 l 0 521 l 0 608 m 174 608 l 260 608 l 260 521 l 174 521 l 174 608 m 434 608 l 521 608 l 521 521 l 434 521 l 434 608 m 87 521 l 174 521 l 174 434 l 87 434 l 87 521 m 347 521 l 434 521 l 434 434 l 347 434 l 347 521 m 260 434 l 347 434 l 347 347 l 260 347 l 260 434 m 174 347 l 260 347 l 260 260 l 174 260 l 174 347 m 87 260 l 174 260 l 174 174 l 87 174 l 87 260 m 347 260 l 434 260 l 434 174 l 347 174 l 347 260 m 0 174 l 87 174 l 87 87 l 0 87 l 0 174 m 260 174 l 347 174 l 347 87 l 260 87 l 260 174 m 434 174 l 521 174 l 521 87 l 434 87 l 434 174 m 347 87 l 434 87 l 434 0 l 347 0 l 347 87 z "},"&":{"ha":608,"x_min":0,"x_max":521,"o":"m 174 868 l 347 868 l 347 781 l 174 781 l 174 868 m 87 781 l 174 781 l 174 521 l 87 521 l 87 781 m 347 781 l 434 781 l 434 521 l 347 521 l 347 781 m 174 521 l 347 521 l 347 434 l 260 434 l 260 347 l 87 347 l 87 434 l 174 434 l 174 521 m 0 347 l 87 347 l 87 87 l 0 87 l 0 347 m 260 347 l 347 347 l 347 260 l 260 260 l 260 347 m 434 347 l 521 347 l 521 260 l 434 260 l 434 347 m 347 260 l 434 260 l 434 87 l 347 87 l 347 260 m 87 87 l 347 87 l 347 0 l 87 0 l 87 87 m 434 87 l 521 87 l 521 0 l 434 0 l 434 87 z "},"'":{"ha":174,"x_min":0,"x_max":87,"o":"m 0 868 l 87 868 l 87 608 l 0 608 l 0 868 z "},"(":{"ha":347,"x_min":0,"x_max":260,"o":"m 174 955 l 260 955 l 260 781 l 174 781 l 174 955 m 87 781 l 174 781 l 174 608 l 87 608 l 87 781 m 0 608 l 87 608 l 87 260 l 0 260 l 0 608 m 87 260 l 174 260 l 174 87 l 87 87 l 87 260 m 174 87 l 260 87 l 260 -87 l 174 -87 l 174 87 z "},")":{"ha":347,"x_min":0,"x_max":260,"o":"m 0 955 l 87 955 l 87 781 l 0 781 l 0 955 m 87 781 l 174 781 l 174 608 l 87 608 l 87 781 m 174 608 l 260 608 l 260 260 l 174 260 l 174 608 m 87 260 l 174 260 l 174 87 l 87 87 l 87 260 m 0 87 l 87 87 l 87 -87 l 0 -87 l 0 87 z "},"*":{"ha":521,"x_min":0,"x_max":434,"o":"m 0 608 l 87 608 l 87 521 l 0 521 l 0 608 m 174 608 l 260 608 l 260 521 l 347 521 l 347 347 l 260 347 l 260 260 l 174 260 l 174 347 l 87 347 l 87 521 l 174 521 l 174 608 m 347 608 l 434 608 l 434 521 l 347 521 l 347 608 m 0 347 l 87 347 l 87 260 l 0 260 l 0 347 m 347 347 l 434 347 l 434 260 l 347 260 l 347 347 z "},"+":{"ha":521,"x_min":0,"x_max":434,"o":"m 174 521 l 260 521 l 260 347 l 434 347 l 434 260 l 260 260 l 260 87 l 174 87 l 174 260 l 0 260 l 0 347 l 174 347 l 174 521 z "},",":{"ha":260,"x_min":0,"x_max":174,"o":"m 0 174 l 174 174 l 174 0 l 87 0 l 87 87 l 0 87 l 0 174 m 0 0 l 87 0 l 87 -87 l 0 -87 l 0 0 z "},"-":{"ha":521,"x_min":0,"x_max":434,"o":"m 0 347 l 434 347 l 434 260 l 0 260 l 0 347 z "},".":{"ha":174,"x_min":0,"x_max":87,"o":"m 0 87 l 87 87 l 87 0 l 0 0 l 0 87 z "},"/":{"ha":347,"x_min":0,"x_max":260,"o":"m 174 868 l 260 868 l 260 608 l 174 608 l 174 868 m 87 608 l 174 608 l 174 260 l 87 260 l 87 608 m 0 260 l 87 260 l 87 0 l 0 0 l 0 260 z "},":":{"ha":260,"x_min":87,"x_max":174,"o":"m 87 347 l 174 347 l 174 260 l 87 260 l 87 347 m 87 174 l 174 174 l 174 87 l 87 87 l 87 174 z "},";":{"ha":260,"x_min":0,"x_max":174,"o":"m 87 347 l 174 347 l 174 260 l 87 260 l 87 347 m 0 174 l 174 174 l 174 0 l 87 0 l 87 87 l 0 87 l 0 174 m 0 0 l 87 0 l 87 -87 l 0 -87 l 0 0 z "},"<":{"ha":434,"x_min":0,"x_max":347,"o":"m 260 608 l 347 608 l 347 521 l 260 521 l 260 608 m 174 521 l 260 521 l 260 434 l 174 434 l 174 521 m 87 434 l 174 434 l 174 347 l 87 347 l 87 434 m 0 347 l 87 347 l 87 260 l 0 260 l 0 347 m 87 260 l 174 260 l 174 174 l 87 174 l 87 260 m 174 174 l 260 174 l 260 87 l 174 87 l 174 174 m 260 87 l 347 87 l 347 0 l 260 0 l 260 87 z "},"=":{"ha":521,"x_min":0,"x_max":434,"o":"m 0 434 l 434 434 l 434 347 l 0 347 l 0 434 m 0 260 l 434 260 l 434 174 l 0 174 l 0 260 z "},">":{"ha":434,"x_min":0,"x_max":347,"o":"m 0 608 l 87 608 l 87 521 l 0 521 l 0 608 m 87 521 l 174 521 l 174 434 l 87 434 l 87 521 m 174 434 l 260 434 l 260 347 l 174 347 l 174 434 m 260 347 l 347 347 l 347 260 l 260 260 l 260 347 m 174 260 l 260 260 l 260 174 l 174 174 l 174 260 m 87 174 l 174 174 l 174 87 l 87 87 l 87 174 m 0 87 l 87 87 l 87 0 l 0 0 l 0 87 z "},"?":{"ha":521,"x_min":0,"x_max":434,"o":"m 0 868 l 347 868 l 347 781 l 0 781 l 0 868 m 347 781 l 434 781 l 434 434 l 347 434 l 347 781 m 260 434 l 347 434 l 347 347 l 260 347 l 260 434 m 174 347 l 260 347 l 260 174 l 174 174 l 174 347 m 174 87 l 260 87 l 260 0 l 174 0 l 174 87 z "},"@":{"ha":694,"x_min":0,"x_max":608,"o":"m 174 868 l 434 868 l 434 781 l 174 781 l 174 868 m 87 781 l 174 781 l 174 694 l 87 694 l 87 781 m 434 781 l 521 781 l 521 694 l 434 694 l 434 781 m 0 694 l 87 694 l 87 87 l 0 87 l 0 694 m 521 694 l 608 694 l 608 260 l 521 260 l 521 694 m 260 608 l 347 608 l 347 521 l 260 521 l 260 608 m 174 521 l 260 521 l 260 260 l 174 260 l 174 521 m 347 521 l 434 521 l 434 260 l 521 260 l 521 174 l 260 174 l 260 260 l 347 260 l 347 521 m 87 87 l 174 87 l 174 0 l 87 0 l 87 87 m 434 87 l 521 87 l 521 0 l 434 0 l 434 87 m 174 0 l 434 0 l 434 -87 l 174 -87 l 174 0 z "},"A":{"ha":521,"x_min":0,"x_max":434,"o":"m 174 868 l 260 868 l 260 608 l 174 608 l 174 868 m 87 608 l 174 608 l 174 347 l 260 347 l 260 608 l 347 608 l 347 347 l 434 347 l 434 0 l 347 0 l 347 260 l 87 260 l 87 0 l 0 0 l 0 347 l 87 347 l 87 608 z "},"B":{"ha":521,"x_min":0,"x_max":434,"o":"m 0 868 l 347 868 l 347 781 l 87 781 l 87 521 l 347 521 l 347 434 l 87 434 l 87 87 l 347 87 l 347 0 l 0 0 l 0 868 m 347 781 l 434 781 l 434 521 l 347 521 l 347 781 m 347 434 l 434 434 l 434 87 l 347 87 l 347 434 z "},"C":{"ha":521,"x_min":0,"x_max":434,"o":"m 174 868 l 347 868 l 347 781 l 174 781 l 174 868 m 87 781 l 174 781 l 174 694 l 87 694 l 87 781 m 347 781 l 434 781 l 434 694 l 347 694 l 347 781 m 0 694 l 87 694 l 87 174 l 0 174 l 0 694 m 87 174 l 174 174 l 174 87 l 87 87 l 87 174 m 347 174 l 434 174 l 434 87 l 347 87 l 347 174 m 174 87 l 347 87 l 347 0 l 174 0 l 174 87 z "},"D":{"ha":521,"x_min":0,"x_max":434,"o":"m 0 868 l 347 868 l 347 781 l 87 781 l 87 87 l 347 87 l 347 0 l 0 0 l 0 868 m 347 781 l 434 781 l 434 87 l 347 87 l 347 781 z "},"E":{"ha":521,"x_min":0,"x_max":434,"o":"m 0 868 l 434 868 l 434 781 l 87 781 l 87 521 l 347 521 l 347 434 l 87 434 l 87 87 l 434 87 l 434 0 l 0 0 l 0 868 z "},"F":{"ha":521,"x_min":0,"x_max":434,"o":"m 0 868 l 434 868 l 434 781 l 87 781 l 87 521 l 347 521 l 347 434 l 87 434 l 87 0 l 0 0 l 0 868 z "},"G":{"ha":521,"x_min":0,"x_max":434,"o":"m 174 868 l 347 868 l 347 781 l 174 781 l 174 868 m 87 781 l 174 781 l 174 694 l 87 694 l 87 781 m 347 781 l 434 781 l 434 694 l 347 694 l 347 781 m 0 694 l 87 694 l 87 174 l 0 174 l 0 694 m 174 521 l 434 521 l 434 0 l 174 0 l 174 87 l 347 87 l 347 434 l 174 434 l 174 521 m 87 174 l 174 174 l 174 87 l 87 87 l 87 174 z "},"H":{"ha":521,"x_min":0,"x_max":434,"o":"m 0 868 l 87 868 l 87 521 l 347 521 l 347 868 l 434 868 l 434 0 l 347 0 l 347 434 l 87 434 l 87 0 l 0 0 l 0 868 z "},"I":{"ha":347,"x_min":0,"x_max":260,"o":"m 0 868 l 260 868 l 260 781 l 174 781 l 174 87 l 260 87 l 260 0 l 0 0 l 0 87 l 87 87 l 87 781 l 0 781 l 0 868 z "},"J":{"ha":521,"x_min":0,"x_max":434,"o":"m 260 868 l 434 868 l 434 87 l 347 87 l 347 781 l 260 781 l 260 868 m 0 347 l 87 347 l 87 87 l 0 87 l 0 347 m 87 87 l 347 87 l 347 0 l 87 0 l 87 87 z "},"K":{"ha":521,"x_min":0,"x_max":434,"o":"m 0 868 l 87 868 l 87 347 l 174 347 l 174 174 l 87 174 l 87 0 l 0 0 l 0 868 m 347 868 l 434 868 l 434 694 l 347 694 l 347 868 m 260 694 l 347 694 l 347 521 l 260 521 l 260 694 m 174 521 l 260 521 l 260 347 l 174 347 l 174 521 m 260 347 l 347 347 l 347 174 l 260 174 l 260 347 m 347 174 l 434 174 l 434 0 l 347 0 l 347 174 z "},"L":{"ha":521,"x_min":0,"x_max":434,"o":"m 0 868 l 87 868 l 87 87 l 434 87 l 434 0 l 0 0 l 0 868 z "},"M":{"ha":521,"x_min":0,"x_max":434,"o":"m 0 868 l 87 868 l 87 694 l 174 694 l 174 521 l 87 521 l 87 0 l 0 0 l 0 868 m 347 868 l 434 868 l 434 0 l 347 0 l 347 521 l 260 521 l 260 694 l 347 694 l 347 868 m 174 521 l 260 521 l 260 347 l 174 347 l 174 521 z "},"N":{"ha":521,"x_min":0,"x_max":434,"o":"m 0 868 l 87 868 l 87 694 l 174 694 l 174 521 l 87 521 l 87 0 l 0 0 l 0 868 m 347 868 l 434 868 l 434 0 l 347 0 l 347 174 l 260 174 l 260 347 l 347 347 l 347 868 m 174 521 l 260 521 l 260 347 l 174 347 l 174 521 z "},"O":{"ha":521,"x_min":0,"x_max":434,"o":"m 87 868 l 347 868 l 347 781 l 87 781 l 87 868 m 0 781 l 87 781 l 87 87 l 0 87 l 0 781 m 347 781 l 434 781 l 434 87 l 347 87 l 347 781 m 87 87 l 347 87 l 347 0 l 87 0 l 87 87 z "},"P":{"ha":521,"x_min":0,"x_max":434,"o":"m 0 868 l 347 868 l 347 781 l 87 781 l 87 434 l 347 434 l 347 347 l 87 347 l 87 0 l 0 0 l 0 868 m 347 781 l 434 781 l 434 434 l 347 434 l 347 781 z "},"Q":{"ha":521,"x_min":0,"x_max":434,"o":"m 87 868 l 347 868 l 347 781 l 87 781 l 87 868 m 0 781 l 87 781 l 87 87 l 0 87 l 0 781 m 347 781 l 434 781 l 434 87 l 347 87 l 347 781 m 174 174 l 260 174 l 260 87 l 347 87 l 347 -87 l 260 -87 l 260 0 l 87 0 l 87 87 l 174 87 l 174 174 z "},"R":{"ha":521,"x_min":0,"x_max":434,"o":"m 0 868 l 347 868 l 347 781 l 87 781 l 87 347 l 347 347 l 347 174 l 260 174 l 260 260 l 87 260 l 87 0 l 0 0 l 0 868 m 347 781 l 434 781 l 434 347 l 347 347 l 347 781 m 347 174 l 434 174 l 434 0 l 347 0 l 347 174 z "},"S":{"ha":521,"x_min":0,"x_max":434,"o":"m 87 868 l 347 868 l 347 781 l 87 781 l 87 868 m 0 781 l 87 781 l 87 521 l 0 521 l 0 781 m 87 521 l 347 521 l 347 434 l 87 434 l 87 521 m 347 434 l 434 434 l 434 87 l 347 87 l 347 434 m 0 87 l 347 87 l 347 0 l 0 0 l 0 87 z "},"T":{"ha":521,"x_min":0,"x_max":434,"o":"m 0 868 l 434 868 l 434 781 l 260 781 l 260 0 l 174 0 l 174 781 l 0 781 l 0 868 z "},"U":{"ha":521,"x_min":0,"x_max":434,"o":"m 0 868 l 87 868 l 87 87 l 0 87 l 0 868 m 347 868 l 434 868 l 434 87 l 347 87 l 347 868 m 87 87 l 347 87 l 347 0 l 87 0 l 87 87 z "},"V":{"ha":521,"x_min":0,"x_max":434,"o":"m 0 868 l 87 868 l 87 521 l 0 521 l 0 868 m 347 868 l 434 868 l 434 521 l 347 521 l 347 868 m 87 521 l 174 521 l 174 260 l 87 260 l 87 521 m 260 521 l 347 521 l 347 260 l 260 260 l 260 521 m 174 260 l 260 260 l 260 0 l 174 0 l 174 260 z "},"W":{"ha":521,"x_min":0,"x_max":434,"o":"m 0 868 l 87 868 l 87 260 l 174 260 l 174 87 l 87 87 l 87 0 l 0 0 l 0 868 m 347 868 l 434 868 l 434 0 l 347 0 l 347 87 l 260 87 l 260 260 l 347 260 l 347 868 m 174 434 l 260 434 l 260 260 l 174 260 l 174 434 z "},"X":{"ha":521,"x_min":0,"x_max":434,"o":"m 0 868 l 87 868 l 87 694 l 0 694 l 0 868 m 347 868 l 434 868 l 434 694 l 347 694 l 347 868 m 87 694 l 174 694 l 174 521 l 87 521 l 87 694 m 260 694 l 347 694 l 347 521 l 260 521 l 260 694 m 174 521 l 260 521 l 260 434 l 174 434 l 174 521 m 87 434 l 174 434 l 174 260 l 87 260 l 87 434 m 260 434 l 347 434 l 347 260 l 260 260 l 260 434 m 0 260 l 87 260 l 87 0 l 0 0 l 0 260 m 347 260 l 434 260 l 434 0 l 347 0 l 347 260 z "},"Y":{"ha":521,"x_min":0,"x_max":434,"o":"m 0 868 l 87 868 l 87 521 l 0 521 l 0 868 m 347 868 l 434 868 l 434 521 l 347 521 l 347 868 m 87 521 l 174 521 l 174 347 l 87 347 l 87 521 m 260 521 l 347 521 l 347 347 l 260 347 l 260 521 m 174 347 l 260 347 l 260 174 l 174 174 l 174 347 m 87 174 l 174 174 l 174 0 l 87 0 l 87 174 z "},"Z":{"ha":521,"x_min":0,"x_max":434,"o":"m 0 868 l 434 868 l 434 694 l 347 694 l 347 781 l 0 781 l 0 868 m 260 694 l 347 694 l 347 521 l 260 521 l 260 694 m 174 521 l 260 521 l 260 347 l 174 347 l 174 521 m 87 347 l 174 347 l 174 174 l 87 174 l 87 347 m 0 174 l 87 174 l 87 87 l 434 87 l 434 0 l 0 0 l 0 174 z "},"[":{"ha":347,"x_min":0,"x_max":260,"o":"m 0 955 l 260 955 l 260 868 l 87 868 l 87 0 l 260 0 l 260 -87 l 0 -87 l 0 955 z "},"\\":{"ha":347,"x_min":0,"x_max":260,"o":"m 0 868 l 87 868 l 87 608 l 0 608 l 0 868 m 87 608 l 174 608 l 174 260 l 87 260 l 87 608 m 174 260 l 260 260 l 260 0 l 174 0 l 174 260 z "},"]":{"ha":347,"x_min":0,"x_max":260,"o":"m 0 955 l 260 955 l 260 -87 l 0 -87 l 0 0 l 174 0 l 174 868 l 0 868 l 0 955 z "},"^":{"ha":521,"x_min":0,"x_max":434,"o":"m 174 868 l 260 868 l 260 781 l 174 781 l 174 868 m 87 781 l 174 781 l 174 694 l 87 694 l 87 781 m 260 781 l 347 781 l 347 694 l 260 694 l 260 781 m 0 694 l 87 694 l 87 608 l 0 608 l 0 694 m 347 694 l 434 694 l 434 608 l 347 608 l 347 694 z "},"_":{"ha":694,"x_min":0,"x_max":608,"o":"m 0 0 l 608 0 l 608 -87 l 0 -87 l 0 0 z "},"`":{"ha":260,"x_min":0,"x_max":174,"o":"m 0 868 l 87 868 l 87 781 l 0 781 l 0 868 m 87 781 l 174 781 l 174 694 l 87 694 l 87 781 z "},"a":{"ha":521,"x_min":0,"x_max":434,"o":"m 87 608 l 347 608 l 347 521 l 87 521 l 87 608 m 347 521 l 434 521 l 434 87 l 347 87 l 347 347 l 87 347 l 87 434 l 347 434 l 347 521 m 0 347 l 87 347 l 87 87 l 0 87 l 0 347 m 87 87 l 347 87 l 347 0 l 87 0 l 87 87 z "},"b":{"ha":521,"x_min":0,"x_max":434,"o":"m 0 868 l 87 868 l 87 521 l 174 521 l 174 434 l 87 434 l 87 87 l 0 87 l 0 868 m 174 608 l 347 608 l 347 521 l 174 521 l 174 608 m 347 521 l 434 521 l 434 87 l 347 87 l 347 521 m 87 87 l 347 87 l 347 0 l 87 0 l 87 87 z "},"c":{"ha":521,"x_min":0,"x_max":434,"o":"m 174 608 l 347 608 l 347 521 l 174 521 l 174 608 m 87 521 l 174 521 l 174 434 l 87 434 l 87 521 m 347 521 l 434 521 l 434 434 l 347 434 l 347 521 m 0 434 l 87 434 l 87 174 l 0 174 l 0 434 m 87 174 l 174 174 l 174 87 l 87 87 l 87 174 m 347 174 l 434 174 l 434 87 l 347 87 l 347 174 m 174 87 l 347 87 l 347 0 l 174 0 l 174 87 z "},"d":{"ha":521,"x_min":0,"x_max":434,"o":"m 347 868 l 434 868 l 434 0 l 87 0 l 87 87 l 347 87 l 347 434 l 260 434 l 260 521 l 347 521 l 347 868 m 87 608 l 260 608 l 260 521 l 87 521 l 87 608 m 0 521 l 87 521 l 87 87 l 0 87 l 0 521 z "},"e":{"ha":521,"x_min":0,"x_max":434,"o":"m 87 608 l 347 608 l 347 521 l 87 521 l 87 608 m 0 521 l 87 521 l 87 260 l 347 260 l 347 174 l 87 174 l 87 87 l 0 87 l 0 521 m 347 521 l 434 521 l 434 260 l 347 260 l 347 521 m 87 87 l 434 87 l 434 0 l 87 0 l 87 87 z "},"f":{"ha":521,"x_min":0,"x_max":434,"o":"m 174 868 l 434 868 l 434 781 l 174 781 l 174 868 m 87 781 l 174 781 l 174 521 l 434 521 l 434 434 l 174 434 l 174 0 l 87 0 l 87 434 l 0 434 l 0 521 l 87 521 l 87 781 z "},"g":{"ha":521,"x_min":0,"x_max":434,"o":"m 87 608 l 434 608 l 434 174 l 347 174 l 347 521 l 87 521 l 87 608 m 0 521 l 87 521 l 87 174 l 0 174 l 0 521 m 87 174 l 347 174 l 347 87 l 174 87 l 174 0 l 87 0 l 87 174 m 0 0 l 87 0 l 87 -174 l 0 -174 l 0 0 m 347 0 l 434 0 l 434 -174 l 347 -174 l 347 0 m 87 -174 l 347 -174 l 347 -260 l 87 -260 l 87 -174 z "},"h":{"ha":521,"x_min":0,"x_max":434,"o":"m 0 868 l 87 868 l 87 521 l 174 521 l 174 434 l 87 434 l 87 0 l 0 0 l 0 868 m 174 608 l 347 608 l 347 521 l 174 521 l 174 608 m 347 521 l 434 521 l 434 0 l 347 0 l 347 521 z "},"i":{"ha":347,"x_min":0,"x_max":260,"o":"m 87 868 l 174 868 l 174 694 l 87 694 l 87 868 m 0 608 l 174 608 l 174 87 l 260 87 l 260 0 l 0 0 l 0 87 l 87 87 l 87 521 l 0 521 l 0 608 z "},"j":{"ha":347,"x_min":0,"x_max":260,"o":"m 174 868 l 260 868 l 260 694 l 174 694 l 174 868 m 0 608 l 260 608 l 260 -174 l 174 -174 l 174 521 l 0 521 l 0 608 m 0 -174 l 174 -174 l 174 -260 l 0 -260 l 0 -174 z "},"k":{"ha":521,"x_min":0,"x_max":434,"o":"m 0 868 l 87 868 l 87 347 l 174 347 l 174 260 l 87 260 l 87 0 l 0 0 l 0 868 m 347 608 l 434 608 l 434 521 l 347 521 l 347 608 m 260 521 l 347 521 l 347 434 l 260 434 l 260 521 m 174 434 l 260 434 l 260 347 l 174 347 l 174 434 m 174 260 l 260 260 l 260 174 l 174 174 l 174 260 m 260 174 l 347 174 l 347 87 l 260 87 l 260 174 m 347 87 l 434 87 l 434 0 l 347 0 l 347 87 z "},"l":{"ha":347,"x_min":0,"x_max":260,"o":"m 0 868 l 174 868 l 174 87 l 260 87 l 260 0 l 0 0 l 0 87 l 87 87 l 87 781 l 0 781 l 0 868 z "},"m":{"ha":694,"x_min":0,"x_max":608,"o":"m 0 608 l 87 608 l 87 521 l 174 521 l 174 434 l 87 434 l 87 0 l 0 0 l 0 608 m 174 608 l 260 608 l 260 521 l 174 521 l 174 608 m 347 608 l 521 608 l 521 521 l 347 521 l 347 608 m 260 521 l 347 521 l 347 0 l 260 0 l 260 521 m 521 521 l 608 521 l 608 0 l 521 0 l 521 521 z "},"n":{"ha":521,"x_min":0,"x_max":434,"o":"m 0 608 l 87 608 l 87 521 l 174 521 l 174 434 l 87 434 l 87 0 l 0 0 l 0 608 m 174 608 l 347 608 l 347 521 l 174 521 l 174 608 m 347 521 l 434 521 l 434 0 l 347 0 l 347 521 z "},"o":{"ha":521,"x_min":0,"x_max":434,"o":"m 87 608 l 347 608 l 347 521 l 87 521 l 87 608 m 0 521 l 87 521 l 87 87 l 0 87 l 0 521 m 347 521 l 434 521 l 434 87 l 347 87 l 347 521 m 87 87 l 347 87 l 347 0 l 87 0 l 87 87 z "},"p":{"ha":521,"x_min":0,"x_max":434,"o":"m 0 608 l 87 608 l 87 521 l 174 521 l 174 434 l 87 434 l 87 174 l 174 174 l 174 87 l 87 87 l 87 -260 l 0 -260 l 0 608 m 174 608 l 347 608 l 347 521 l 174 521 l 174 608 m 347 521 l 434 521 l 434 87 l 347 87 l 347 521 m 174 87 l 347 87 l 347 0 l 174 0 l 174 87 z "},"q":{"ha":521,"x_min":0,"x_max":434,"o":"m 87 608 l 347 608 l 347 521 l 87 521 l 87 608 m 0 521 l 87 521 l 87 87 l 0 87 l 0 521 m 347 521 l 434 521 l 434 -260 l 347 -260 l 347 87 l 260 87 l 260 174 l 347 174 l 347 521 m 87 87 l 260 87 l 260 0 l 87 0 l 87 87 z "},"r":{"ha":434,"x_min":0,"x_max":347,"o":"m 0 608 l 87 608 l 87 521 l 174 521 l 174 434 l 87 434 l 87 0 l 0 0 l 0 608 m 174 608 l 347 608 l 347 434 l 260 434 l 260 521 l 174 521 l 174 608 z "},"s":{"ha":521,"x_min":0,"x_max":434,"o":"m 87 608 l 347 608 l 347 521 l 87 521 l 87 608 m 0 521 l 87 521 l 87 347 l 0 347 l 0 521 m 87 347 l 347 347 l 347 260 l 87 260 l 87 347 m 347 260 l 434 260 l 434 87 l 347 87 l 347 260 m 0 87 l 347 87 l 347 0 l 0 0 l 0 87 z "},"t":{"ha":434,"x_min":0,"x_max":347,"o":"m 87 781 l 174 781 l 174 608 l 347 608 l 347 521 l 174 521 l 174 87 l 87 87 l 87 521 l 0 521 l 0 608 l 87 608 l 87 781 m 174 87 l 347 87 l 347 0 l 174 0 l 174 87 z "},"u":{"ha":521,"x_min":0,"x_max":434,"o":"m 0 608 l 87 608 l 87 87 l 0 87 l 0 608 m 347 608 l 434 608 l 434 87 l 347 87 l 347 608 m 87 87 l 347 87 l 347 0 l 87 0 l 87 87 z "},"v":{"ha":521,"x_min":0,"x_max":434,"o":"m 0 608 l 87 608 l 87 347 l 0 347 l 0 608 m 347 608 l 434 608 l 434 347 l 347 347 l 347 608 m 87 347 l 174 347 l 174 174 l 87 174 l 87 347 m 260 347 l 347 347 l 347 174 l 260 174 l 260 347 m 174 174 l 260 174 l 260 0 l 174 0 l 174 174 z "},"w":{"ha":694,"x_min":0,"x_max":608,"o":"m 0 608 l 87 608 l 87 347 l 0 347 l 0 608 m 521 608 l 608 608 l 608 347 l 521 347 l 521 608 m 87 347 l 174 347 l 174 174 l 87 174 l 87 347 m 260 347 l 347 347 l 347 174 l 434 174 l 434 0 l 347 0 l 347 87 l 260 87 l 260 0 l 174 0 l 174 174 l 260 174 l 260 347 m 434 347 l 521 347 l 521 174 l 434 174 l 434 347 z "},"x":{"ha":521,"x_min":0,"x_max":434,"o":"m 0 608 l 87 608 l 87 434 l 0 434 l 0 608 m 347 608 l 434 608 l 434 434 l 347 434 l 347 608 m 87 434 l 174 434 l 174 347 l 87 347 l 87 434 m 260 434 l 347 434 l 347 347 l 260 347 l 260 434 m 174 347 l 260 347 l 260 260 l 174 260 l 174 347 m 87 260 l 174 260 l 174 174 l 87 174 l 87 260 m 260 260 l 347 260 l 347 174 l 260 174 l 260 260 m 0 174 l 87 174 l 87 0 l 0 0 l 0 174 m 347 174 l 434 174 l 434 0 l 347 0 l 347 174 z "},"y":{"ha":521,"x_min":0,"x_max":434,"o":"m 0 608 l 87 608 l 87 260 l 0 260 l 0 608 m 347 608 l 434 608 l 434 260 l 347 260 l 347 608 m 87 260 l 174 260 l 174 87 l 87 87 l 87 260 m 260 260 l 347 260 l 347 87 l 260 87 l 260 260 m 174 87 l 260 87 l 260 -87 l 174 -87 l 174 87 m 87 -87 l 174 -87 l 174 -260 l 87 -260 l 87 -87 z "},"z":{"ha":521,"x_min":0,"x_max":434,"o":"m 0 608 l 434 608 l 434 434 l 347 434 l 347 521 l 0 521 l 0 608 m 260 434 l 347 434 l 347 347 l 260 347 l 260 434 m 174 347 l 260 347 l 260 260 l 174 260 l 174 347 m 87 260 l 174 260 l 174 174 l 87 174 l 87 260 m 0 174 l 87 174 l 87 87 l 434 87 l 434 0 l 0 0 l 0 174 z "},"{":{"ha":347,"x_min":0,"x_max":260,"o":"m 87 955 l 260 955 l 260 868 l 87 868 l 87 955 m 0 868 l 87 868 l 87 694 l 0 694 l 0 868 m 87 694 l 174 694 l 174 521 l 87 521 l 87 694 m 0 521 l 87 521 l 87 434 l 0 434 l 0 521 m 87 434 l 174 434 l 174 174 l 87 174 l 87 434 m 0 174 l 87 174 l 87 0 l 0 0 l 0 174 m 87 0 l 260 0 l 260 -87 l 87 -87 l 87 0 z "},"|":{"ha":174,"x_min":0,"x_max":87,"o":"m 0 955 l 87 955 l 87 -87 l 0 -87 l 0 955 z "},"}":{"ha":347,"x_min":0,"x_max":260,"o":"m 0 955 l 174 955 l 174 868 l 0 868 l 0 955 m 174 868 l 260 868 l 260 694 l 174 694 l 174 868 m 87 694 l 174 694 l 174 521 l 87 521 l 87 694 m 174 521 l 260 521 l 260 434 l 174 434 l 174 521 m 87 434 l 174 434 l 174 174 l 87 174 l 87 434 m 174 174 l 260 174 l 260 0 l 174 0 l 174 174 m 0 0 l 174 0 l 174 -87 l 0 -87 l 0 0 z "},"~":{"ha":608,"x_min":0,"x_max":521,"o":"m 87 434 l 260 434 l 260 347 l 87 347 l 87 434 m 434 434 l 521 434 l 521 260 l 434 260 l 434 434 m 0 347 l 87 347 l 87 174 l 0 174 l 0 347 m 260 347 l 347 347 l 347 260 l 260 260 l 260 347 m 347 260 l 434 260 l 434 174 l 347 174 l 347 260 z "},"¡":{"ha":174,"x_min":0,"x_max":87,"o":"m 0 694 l 87 694 l 87 608 l 0 608 l 0 694 m 0 521 l 87 521 l 87 -174 l 0 -174 l 0 521 z "},"¢":{"ha":608,"x_min":0,"x_max":521,"o":"m 260 694 l 347 694 l 347 608 l 434 608 l 434 521 l 347 521 l 347 87 l 434 87 l 434 0 l 347 0 l 347 -87 l 260 -87 l 260 0 l 174 0 l 174 87 l 260 87 l 260 521 l 174 521 l 174 608 l 260 608 l 260 694 m 87 521 l 174 521 l 174 434 l 87 434 l 87 521 m 434 521 l 521 521 l 521 434 l 434 434 l 434 521 m 0 434 l 87 434 l 87 174 l 0 174 l 0 434 m 87 174 l 174 174 l 174 87 l 87 87 l 87 174 m 434 174 l 521 174 l 521 87 l 434 87 l 434 174 z "},"£":{"ha":694,"x_min":0,"x_max":608,"o":"m 260 868 l 521 868 l 521 781 l 260 781 l 260 868 m 174 781 l 260 781 l 260 694 l 174 694 l 174 781 m 521 781 l 608 781 l 608 694 l 521 694 l 521 781 m 87 694 l 174 694 l 174 521 l 434 521 l 434 434 l 174 434 l 174 87 l 608 87 l 608 0 l 0 0 l 0 87 l 87 87 l 87 434 l 0 434 l 0 521 l 87 521 l 87 694 z "},"©":{"ha":694,"x_min":0,"x_max":608,"o":"m 174 694 l 434 694 l 434 608 l 174 608 l 174 694 m 87 608 l 174 608 l 174 521 l 87 521 l 87 608 m 434 608 l 521 608 l 521 521 l 434 521 l 434 608 m 0 521 l 87 521 l 87 174 l 0 174 l 0 521 m 260 521 l 434 521 l 434 434 l 260 434 l 260 521 m 521 521 l 608 521 l 608 174 l 521 174 l 521 521 m 174 434 l 260 434 l 260 260 l 174 260 l 174 434 m 260 260 l 434 260 l 434 174 l 260 174 l 260 260 m 87 174 l 174 174 l 174 87 l 87 87 l 87 174 m 434 174 l 521 174 l 521 87 l 434 87 l 434 174 m 174 87 l 434 87 l 434 0 l 174 0 l 174 87 z "},"«":{"ha":608,"x_min":0,"x_max":521,"o":"m 174 521 l 260 521 l 260 434 l 174 434 l 174 521 m 434 521 l 521 521 l 521 434 l 434 434 l 434 521 m 87 434 l 174 434 l 174 347 l 87 347 l 87 434 m 347 434 l 434 434 l 434 347 l 347 347 l 347 434 m 0 347 l 87 347 l 87 260 l 0 260 l 0 347 m 260 347 l 347 347 l 347 260 l 260 260 l 260 347 m 87 260 l 174 260 l 174 174 l 87 174 l 87 260 m 347 260 l 434 260 l 434 174 l 347 174 l 347 260 m 174 174 l 260 174 l 260 87 l 174 87 l 174 174 m 434 174 l 521 174 l 521 87 l 434 87 l 434 174 z "},"®":{"ha":694,"x_min":0,"x_max":608,"o":"m 174 781 l 434 781 l 434 694 l 174 694 l 174 781 m 87 694 l 174 694 l 174 608 l 87 608 l 87 694 m 434 694 l 521 694 l 521 608 l 434 608 l 434 694 m 0 608 l 87 608 l 87 347 l 0 347 l 0 608 m 174 608 l 434 608 l 434 521 l 347 521 l 347 434 l 260 434 l 260 347 l 174 347 l 174 608 m 521 608 l 608 608 l 608 347 l 521 347 l 521 608 m 347 434 l 434 434 l 434 347 l 347 347 l 347 434 m 87 347 l 174 347 l 174 260 l 87 260 l 87 347 m 434 347 l 521 347 l 521 260 l 434 260 l 434 347 m 174 260 l 434 260 l 434 174 l 174 174 l 174 260 z "},"°":{"ha":434,"x_min":0,"x_max":347,"o":"m 87 868 l 260 868 l 260 781 l 87 781 l 87 868 m 0 781 l 87 781 l 87 608 l 0 608 l 0 781 m 260 781 l 347 781 l 347 608 l 260 608 l 260 781 m 87 608 l 260 608 l 260 521 l 87 521 l 87 608 z "},"·":{"ha":260,"x_min":0,"x_max":174,"o":"m 0 434 l 174 434 l 174 260 l 0 260 l 0 434 z "},"»":{"ha":608,"x_min":0,"x_max":521,"o":"m 0 521 l 87 521 l 87 434 l 0 434 l 0 521 m 260 521 l 347 521 l 347 434 l 260 434 l 260 521 m 87 434 l 174 434 l 174 347 l 87 347 l 87 434 m 347 434 l 434 434 l 434 347 l 347 347 l 347 434 m 174 347 l 260 347 l 260 260 l 174 260 l 174 347 m 434 347 l 521 347 l 521 260 l 434 260 l 434 347 m 87 260 l 174 260 l 174 174 l 87 174 l 87 260 m 347 260 l 434 260 l 434 174 l 347 174 l 347 260 m 0 174 l 87 174 l 87 87 l 0 87 l 0 174 m 260 174 l 347 174 l 347 87 l 260 87 l 260 174 z "},"¿":{"ha":521,"x_min":0,"x_max":434,"o":"m 174 694 l 260 694 l 260 608 l 174 608 l 174 694 m 174 521 l 260 521 l 260 347 l 174 347 l 174 521 m 87 347 l 174 347 l 174 260 l 87 260 l 87 347 m 0 260 l 87 260 l 87 -87 l 0 -87 l 0 260 m 87 -87 l 434 -87 l 434 -174 l 87 -174 l 87 -87 z "},"À":{"ha":521,"x_min":0,"x_max":434,"o":"m 87 1128 l 174 1128 l 174 1042 l 87 1042 l 87 1128 m 174 1042 l 260 1042 l 260 955 l 174 955 l 174 1042 m 174 868 l 260 868 l 260 608 l 174 608 l 174 868 m 87 608 l 174 608 l 174 347 l 260 347 l 260 608 l 347 608 l 347 347 l 434 347 l 434 0 l 347 0 l 347 260 l 87 260 l 87 0 l 0 0 l 0 347 l 87 347 l 87 608 z "},"Á":{"ha":521,"x_min":0,"x_max":434,"o":"m 260 1128 l 347 1128 l 347 1042 l 260 1042 l 260 1128 m 174 1042 l 260 1042 l 260 955 l 174 955 l 174 1042 m 174 868 l 260 868 l 260 608 l 174 608 l 174 868 m 87 608 l 174 608 l 174 347 l 260 347 l 260 608 l 347 608 l 347 347 l 434 347 l 434 0 l 347 0 l 347 260 l 87 260 l 87 0 l 0 0 l 0 347 l 87 347 l 87 608 z "},"Â":{"ha":521,"x_min":0,"x_max":434,"o":"m 174 1128 l 260 1128 l 260 1042 l 174 1042 l 174 1128 m 87 1042 l 174 1042 l 174 955 l 87 955 l 87 1042 m 260 1042 l 347 1042 l 347 955 l 260 955 l 260 1042 m 174 868 l 260 868 l 260 608 l 174 608 l 174 868 m 87 608 l 174 608 l 174 347 l 260 347 l 260 608 l 347 608 l 347 347 l 434 347 l 434 0 l 347 0 l 347 260 l 87 260 l 87 0 l 0 0 l 0 347 l 87 347 l 87 608 z "},"Ã":{"ha":521,"x_min":0,"x_max":434,"o":"m 87 1128 l 174 1128 l 174 1042 l 87 1042 l 87 1128 m 0 1042 l 87 1042 l 87 955 l 0 955 l 0 1042 m 174 1042 l 260 1042 l 260 955 l 174 955 l 174 1042 m 347 1042 l 434 1042 l 434 955 l 347 955 l 347 1042 m 260 955 l 347 955 l 347 868 l 260 868 l 260 955 m 174 868 l 260 868 l 260 608 l 174 608 l 174 868 m 87 608 l 174 608 l 174 347 l 260 347 l 260 608 l 347 608 l 347 347 l 434 347 l 434 0 l 347 0 l 347 260 l 87 260 l 87 0 l 0 0 l 0 347 l 87 347 l 87 608 z "},"Ä":{"ha":521,"x_min":0,"x_max":434,"o":"m 87 1128 l 174 1128 l 174 955 l 87 955 l 87 1128 m 260 1128 l 347 1128 l 347 955 l 260 955 l 260 1128 m 174 868 l 260 868 l 260 608 l 174 608 l 174 868 m 87 608 l 174 608 l 174 347 l 260 347 l 260 608 l 347 608 l 347 347 l 434 347 l 434 0 l 347 0 l 347 260 l 87 260 l 87 0 l 0 0 l 0 347 l 87 347 l 87 608 z "},"Å":{"ha":521,"x_min":0,"x_max":434,"o":"m 174 1042 l 260 1042 l 260 955 l 174 955 l 174 1042 m 87 955 l 174 955 l 174 868 l 87 868 l 87 955 m 260 955 l 347 955 l 347 868 l 260 868 l 260 955 m 174 868 l 260 868 l 260 608 l 174 608 l 174 868 m 87 608 l 174 608 l 174 347 l 260 347 l 260 608 l 347 608 l 347 347 l 434 347 l 434 0 l 347 0 l 347 260 l 87 260 l 87 0 l 0 0 l 0 347 l 87 347 l 87 608 z "},"Æ":{"ha":694,"x_min":0,"x_max":608,"o":"m 174 868 l 608 868 l 608 781 l 347 781 l 347 521 l 521 521 l 521 434 l 347 434 l 347 87 l 608 87 l 608 0 l 260 0 l 260 260 l 87 260 l 87 0 l 0 0 l 0 347 l 87 347 l 87 608 l 174 608 l 174 347 l 260 347 l 260 608 l 174 608 l 174 868 z "},"Ç":{"ha":521,"x_min":0,"x_max":434,"o":"m 174 868 l 347 868 l 347 781 l 174 781 l 174 868 m 87 781 l 174 781 l 174 694 l 87 694 l 87 781 m 347 781 l 434 781 l 434 694 l 347 694 l 347 781 m 0 694 l 87 694 l 87 174 l 0 174 l 0 694 m 87 174 l 174 174 l 174 87 l 87 87 l 87 174 m 347 174 l 434 174 l 434 87 l 347 87 l 347 174 m 174 87 l 347 87 l 347 -87 l 260 -87 l 260 0 l 174 0 l 174 87 m 174 -87 l 260 -87 l 260 -174 l 174 -174 l 174 -87 z "},"È":{"ha":521,"x_min":0,"x_max":434,"o":"m 87 1128 l 174 1128 l 174 1042 l 87 1042 l 87 1128 m 174 1042 l 260 1042 l 260 955 l 174 955 l 174 1042 m 0 868 l 434 868 l 434 781 l 87 781 l 87 521 l 347 521 l 347 434 l 87 434 l 87 87 l 434 87 l 434 0 l 0 0 l 0 868 z "},"É":{"ha":521,"x_min":0,"x_max":434,"o":"m 260 1128 l 347 1128 l 347 1042 l 260 1042 l 260 1128 m 174 1042 l 260 1042 l 260 955 l 174 955 l 174 1042 m 0 868 l 434 868 l 434 781 l 87 781 l 87 521 l 347 521 l 347 434 l 87 434 l 87 87 l 434 87 l 434 0 l 0 0 l 0 868 z "},"Ê":{"ha":521,"x_min":0,"x_max":434,"o":"m 174 1128 l 260 1128 l 260 1042 l 174 1042 l 174 1128 m 87 1042 l 174 1042 l 174 955 l 87 955 l 87 1042 m 260 1042 l 347 1042 l 347 955 l 260 955 l 260 1042 m 0 868 l 434 868 l 434 781 l 87 781 l 87 521 l 347 521 l 347 434 l 87 434 l 87 87 l 434 87 l 434 0 l 0 0 l 0 868 z "},"Ë":{"ha":521,"x_min":0,"x_max":434,"o":"m 87 1128 l 174 1128 l 174 955 l 87 955 l 87 1128 m 260 1128 l 347 1128 l 347 955 l 260 955 l 260 1128 m 0 868 l 434 868 l 434 781 l 87 781 l 87 521 l 347 521 l 347 434 l 87 434 l 87 87 l 434 87 l 434 0 l 0 0 l 0 868 z "},"Ì":{"ha":347,"x_min":0,"x_max":260,"o":"m 0 1128 l 87 1128 l 87 1042 l 0 1042 l 0 1128 m 87 1042 l 174 1042 l 174 955 l 87 955 l 87 1042 m 0 868 l 260 868 l 260 781 l 174 781 l 174 87 l 260 87 l 260 0 l 0 0 l 0 87 l 87 87 l 87 781 l 0 781 l 0 868 z "},"Í":{"ha":347,"x_min":0,"x_max":260,"o":"m 174 1128 l 260 1128 l 260 1042 l 174 1042 l 174 1128 m 87 1042 l 174 1042 l 174 955 l 87 955 l 87 1042 m 0 868 l 260 868 l 260 781 l 174 781 l 174 87 l 260 87 l 260 0 l 0 0 l 0 87 l 87 87 l 87 781 l 0 781 l 0 868 z "},"Î":{"ha":347,"x_min":0,"x_max":260,"o":"m 87 1128 l 174 1128 l 174 1042 l 87 1042 l 87 1128 m 0 1042 l 87 1042 l 87 955 l 0 955 l 0 1042 m 174 1042 l 260 1042 l 260 955 l 174 955 l 174 1042 m 0 868 l 260 868 l 260 781 l 174 781 l 174 87 l 260 87 l 260 0 l 0 0 l 0 87 l 87 87 l 87 781 l 0 781 l 0 868 z "},"Ï":{"ha":347,"x_min":0,"x_max":260,"o":"m 0 1128 l 87 1128 l 87 955 l 0 955 l 0 1128 m 174 1128 l 260 1128 l 260 955 l 174 955 l 174 1128 m 0 868 l 260 868 l 260 781 l 174 781 l 174 87 l 260 87 l 260 0 l 0 0 l 0 87 l 87 87 l 87 781 l 0 781 l 0 868 z "},"Ð":{"ha":608,"x_min":0,"x_max":521,"o":"m 87 868 l 434 868 l 434 781 l 174 781 l 174 434 l 347 434 l 347 347 l 174 347 l 174 87 l 434 87 l 434 0 l 87 0 l 87 347 l 0 347 l 0 434 l 87 434 l 87 868 m 434 781 l 521 781 l 521 87 l 434 87 l 434 781 z "},"Ñ":{"ha":521,"x_min":0,"x_max":434,"o":"m 87 1128 l 174 1128 l 174 1042 l 87 1042 l 87 1128 m 0 1042 l 87 1042 l 87 955 l 0 955 l 0 1042 m 174 1042 l 260 1042 l 260 955 l 174 955 l 174 1042 m 347 1042 l 434 1042 l 434 955 l 347 955 l 347 1042 m 260 955 l 347 955 l 347 868 l 260 868 l 260 955 m 0 868 l 87 868 l 87 694 l 174 694 l 174 521 l 87 521 l 87 0 l 0 0 l 0 868 m 347 868 l 434 868 l 434 0 l 347 0 l 347 174 l 260 174 l 260 347 l 347 347 l 347 868 m 174 521 l 260 521 l 260 347 l 174 347 l 174 521 z "},"Ò":{"ha":521,"x_min":0,"x_max":434,"o":"m 87 1128 l 174 1128 l 174 1042 l 87 1042 l 87 1128 m 174 1042 l 260 1042 l 260 955 l 174 955 l 174 1042 m 87 868 l 347 868 l 347 781 l 87 781 l 87 868 m 0 781 l 87 781 l 87 87 l 0 87 l 0 781 m 347 781 l 434 781 l 434 87 l 347 87 l 347 781 m 87 87 l 347 87 l 347 0 l 87 0 l 87 87 z "},"Ó":{"ha":521,"x_min":0,"x_max":434,"o":"m 260 1128 l 347 1128 l 347 1042 l 260 1042 l 260 1128 m 174 1042 l 260 1042 l 260 955 l 174 955 l 174 1042 m 87 868 l 347 868 l 347 781 l 87 781 l 87 868 m 0 781 l 87 781 l 87 87 l 0 87 l 0 781 m 347 781 l 434 781 l 434 87 l 347 87 l 347 781 m 87 87 l 347 87 l 347 0 l 87 0 l 87 87 z "},"Ô":{"ha":521,"x_min":0,"x_max":434,"o":"m 174 1128 l 260 1128 l 260 1042 l 174 1042 l 174 1128 m 87 1042 l 174 1042 l 174 955 l 87 955 l 87 1042 m 260 1042 l 347 1042 l 347 955 l 260 955 l 260 1042 m 87 868 l 347 868 l 347 781 l 87 781 l 87 868 m 0 781 l 87 781 l 87 87 l 0 87 l 0 781 m 347 781 l 434 781 l 434 87 l 347 87 l 347 781 m 87 87 l 347 87 l 347 0 l 87 0 l 87 87 z "},"Õ":{"ha":521,"x_min":0,"x_max":434,"o":"m 87 1128 l 174 1128 l 174 1042 l 87 1042 l 87 1128 m 0 1042 l 87 1042 l 87 955 l 0 955 l 0 1042 m 174 1042 l 260 1042 l 260 955 l 174 955 l 174 1042 m 347 1042 l 434 1042 l 434 955 l 347 955 l 347 1042 m 260 955 l 347 955 l 347 781 l 87 781 l 87 868 l 260 868 l 260 955 m 0 781 l 87 781 l 87 87 l 0 87 l 0 781 m 347 781 l 434 781 l 434 87 l 347 87 l 347 781 m 87 87 l 347 87 l 347 0 l 87 0 l 87 87 z "},"Ö":{"ha":521,"x_min":0,"x_max":434,"o":"m 87 1128 l 174 1128 l 174 955 l 87 955 l 87 1128 m 260 1128 l 347 1128 l 347 955 l 260 955 l 260 1128 m 87 868 l 347 868 l 347 781 l 87 781 l 87 868 m 0 781 l 87 781 l 87 87 l 0 87 l 0 781 m 347 781 l 434 781 l 434 87 l 347 87 l 347 781 m 87 87 l 347 87 l 347 0 l 87 0 l 87 87 z "},"Ø":{"ha":521,"x_min":0,"x_max":434,"o":"m 347 1042 l 434 1042 l 434 868 l 347 868 l 347 1042 m 87 868 l 347 868 l 347 781 l 434 781 l 434 87 l 347 87 l 347 608 l 260 608 l 260 781 l 87 781 l 87 868 m 0 781 l 87 781 l 87 260 l 174 260 l 174 87 l 347 87 l 347 0 l 87 0 l 87 87 l 0 87 l 0 781 m 174 608 l 260 608 l 260 260 l 174 260 l 174 608 m 0 0 l 87 0 l 87 -174 l 0 -174 l 0 0 z "},"Ù":{"ha":521,"x_min":0,"x_max":434,"o":"m 87 1128 l 174 1128 l 174 1042 l 87 1042 l 87 1128 m 174 1042 l 260 1042 l 260 955 l 174 955 l 174 1042 m 0 868 l 87 868 l 87 87 l 0 87 l 0 868 m 347 868 l 434 868 l 434 87 l 347 87 l 347 868 m 87 87 l 347 87 l 347 0 l 87 0 l 87 87 z "},"Ú":{"ha":521,"x_min":0,"x_max":434,"o":"m 260 1128 l 347 1128 l 347 1042 l 260 1042 l 260 1128 m 174 1042 l 260 1042 l 260 955 l 174 955 l 174 1042 m 0 868 l 87 868 l 87 87 l 0 87 l 0 868 m 347 868 l 434 868 l 434 87 l 347 87 l 347 868 m 87 87 l 347 87 l 347 0 l 87 0 l 87 87 z "},"Û":{"ha":521,"x_min":0,"x_max":434,"o":"m 174 1128 l 260 1128 l 260 1042 l 174 1042 l 174 1128 m 87 1042 l 174 1042 l 174 955 l 87 955 l 87 1042 m 260 1042 l 347 1042 l 347 955 l 260 955 l 260 1042 m 0 868 l 87 868 l 87 87 l 0 87 l 0 868 m 347 868 l 434 868 l 434 87 l 347 87 l 347 868 m 87 87 l 347 87 l 347 0 l 87 0 l 87 87 z "},"Ü":{"ha":521,"x_min":0,"x_max":434,"o":"m 87 1128 l 174 1128 l 174 955 l 87 955 l 87 1128 m 260 1128 l 347 1128 l 347 955 l 260 955 l 260 1128 m 0 868 l 87 868 l 87 87 l 0 87 l 0 868 m 347 868 l 434 868 l 434 87 l 347 87 l 347 868 m 87 87 l 347 87 l 347 0 l 87 0 l 87 87 z "},"Ý":{"ha":521,"x_min":0,"x_max":434,"o":"m 260 1128 l 347 1128 l 347 1042 l 260 1042 l 260 1128 m 174 1042 l 260 1042 l 260 955 l 174 955 l 174 1042 m 0 868 l 87 868 l 87 521 l 0 521 l 0 868 m 347 868 l 434 868 l 434 521 l 347 521 l 347 868 m 87 521 l 174 521 l 174 347 l 87 347 l 87 521 m 260 521 l 347 521 l 347 347 l 260 347 l 260 521 m 174 347 l 260 347 l 260 174 l 174 174 l 174 347 m 87 174 l 174 174 l 174 0 l 87 0 l 87 174 z "},"Þ":{"ha":521,"x_min":0,"x_max":434,"o":"m 0 868 l 87 868 l 87 781 l 347 781 l 347 694 l 87 694 l 87 174 l 347 174 l 347 87 l 87 87 l 87 0 l 0 0 l 0 868 m 347 694 l 434 694 l 434 174 l 347 174 l 347 694 z "},"ß":{"ha":608,"x_min":0,"x_max":521,"o":"m 87 868 l 347 868 l 347 781 l 87 781 l 87 868 m 0 781 l 87 781 l 87 0 l 0 0 l 0 781 m 347 781 l 434 781 l 434 608 l 347 608 l 347 781 m 260 608 l 347 608 l 347 521 l 260 521 l 260 608 m 174 521 l 260 521 l 260 434 l 347 434 l 347 347 l 174 347 l 174 521 m 347 347 l 434 347 l 434 260 l 347 260 l 347 347 m 434 260 l 521 260 l 521 87 l 434 87 l 434 260 m 174 87 l 434 87 l 434 0 l 174 0 l 174 87 z "},"à":{"ha":521,"x_min":0,"x_max":434,"o":"m 87 868 l 174 868 l 174 781 l 87 781 l 87 868 m 174 781 l 260 781 l 260 694 l 174 694 l 174 781 m 87 608 l 347 608 l 347 521 l 87 521 l 87 608 m 347 521 l 434 521 l 434 87 l 347 87 l 347 347 l 87 347 l 87 434 l 347 434 l 347 521 m 0 347 l 87 347 l 87 87 l 0 87 l 0 347 m 87 87 l 347 87 l 347 0 l 87 0 l 87 87 z "},"á":{"ha":521,"x_min":0,"x_max":434,"o":"m 260 868 l 347 868 l 347 781 l 260 781 l 260 868 m 174 781 l 260 781 l 260 694 l 174 694 l 174 781 m 87 608 l 347 608 l 347 521 l 87 521 l 87 608 m 347 521 l 434 521 l 434 87 l 347 87 l 347 347 l 87 347 l 87 434 l 347 434 l 347 521 m 0 347 l 87 347 l 87 87 l 0 87 l 0 347 m 87 87 l 347 87 l 347 0 l 87 0 l 87 87 z "},"â":{"ha":521,"x_min":0,"x_max":434,"o":"m 174 868 l 260 868 l 260 781 l 174 781 l 174 868 m 87 781 l 174 781 l 174 694 l 87 694 l 87 781 m 260 781 l 347 781 l 347 694 l 260 694 l 260 781 m 87 608 l 347 608 l 347 521 l 87 521 l 87 608 m 347 521 l 434 521 l 434 87 l 347 87 l 347 347 l 87 347 l 87 434 l 347 434 l 347 521 m 0 347 l 87 347 l 87 87 l 0 87 l 0 347 m 87 87 l 347 87 l 347 0 l 87 0 l 87 87 z "},"ã":{"ha":521,"x_min":0,"x_max":434,"o":"m 87 868 l 174 868 l 174 781 l 87 781 l 87 868 m 0 781 l 87 781 l 87 694 l 0 694 l 0 781 m 174 781 l 260 781 l 260 694 l 174 694 l 174 781 m 347 781 l 434 781 l 434 694 l 347 694 l 347 781 m 260 694 l 347 694 l 347 521 l 87 521 l 87 608 l 260 608 l 260 694 m 347 521 l 434 521 l 434 87 l 347 87 l 347 347 l 87 347 l 87 434 l 347 434 l 347 521 m 0 347 l 87 347 l 87 87 l 0 87 l 0 347 m 87 87 l 347 87 l 347 0 l 87 0 l 87 87 z "},"ä":{"ha":521,"x_min":0,"x_max":434,"o":"m 87 868 l 174 868 l 174 694 l 87 694 l 87 868 m 260 868 l 347 868 l 347 694 l 260 694 l 260 868 m 87 608 l 347 608 l 347 521 l 87 521 l 87 608 m 347 521 l 434 521 l 434 87 l 347 87 l 347 347 l 87 347 l 87 434 l 347 434 l 347 521 m 0 347 l 87 347 l 87 87 l 0 87 l 0 347 m 87 87 l 347 87 l 347 0 l 87 0 l 87 87 z "},"å":{"ha":521,"x_min":0,"x_max":434,"o":"m 174 955 l 260 955 l 260 868 l 174 868 l 174 955 m 87 868 l 174 868 l 174 781 l 87 781 l 87 868 m 260 868 l 347 868 l 347 781 l 260 781 l 260 868 m 174 781 l 260 781 l 260 694 l 174 694 l 174 781 m 87 608 l 347 608 l 347 521 l 87 521 l 87 608 m 347 521 l 434 521 l 434 87 l 347 87 l 347 347 l 87 347 l 87 434 l 347 434 l 347 521 m 0 347 l 87 347 l 87 87 l 0 87 l 0 347 m 87 87 l 347 87 l 347 0 l 87 0 l 87 87 z "},"æ":{"ha":694,"x_min":0,"x_max":608,"o":"m 87 608 l 260 608 l 260 521 l 87 521 l 87 608 m 347 608 l 521 608 l 521 521 l 347 521 l 347 608 m 260 521 l 347 521 l 347 260 l 521 260 l 521 174 l 347 174 l 347 87 l 260 87 l 260 347 l 87 347 l 87 434 l 260 434 l 260 521 m 521 521 l 608 521 l 608 260 l 521 260 l 521 521 m 0 347 l 87 347 l 87 87 l 0 87 l 0 347 m 87 87 l 260 87 l 260 0 l 87 0 l 87 87 m 347 87 l 608 87 l 608 0 l 347 0 l 347 87 z "},"ç":{"ha":521,"x_min":0,"x_max":434,"o":"m 174 608 l 347 608 l 347 521 l 174 521 l 174 608 m 87 521 l 174 521 l 174 434 l 87 434 l 87 521 m 347 521 l 434 521 l 434 434 l 347 434 l 347 521 m 0 434 l 87 434 l 87 174 l 0 174 l 0 434 m 87 174 l 174 174 l 174 87 l 87 87 l 87 174 m 347 174 l 434 174 l 434 87 l 347 87 l 347 174 m 174 87 l 347 87 l 347 -87 l 260 -87 l 260 0 l 174 0 l 174 87 m 174 -87 l 260 -87 l 260 -174 l 174 -174 l 174 -87 z "},"è":{"ha":521,"x_min":0,"x_max":434,"o":"m 87 868 l 174 868 l 174 781 l 87 781 l 87 868 m 174 781 l 260 781 l 260 694 l 174 694 l 174 781 m 87 608 l 347 608 l 347 521 l 87 521 l 87 608 m 0 521 l 87 521 l 87 260 l 347 260 l 347 174 l 87 174 l 87 87 l 0 87 l 0 521 m 347 521 l 434 521 l 434 260 l 347 260 l 347 521 m 87 87 l 434 87 l 434 0 l 87 0 l 87 87 z "},"é":{"ha":521,"x_min":0,"x_max":434,"o":"m 260 868 l 347 868 l 347 781 l 260 781 l 260 868 m 174 781 l 260 781 l 260 694 l 174 694 l 174 781 m 87 608 l 347 608 l 347 521 l 87 521 l 87 608 m 0 521 l 87 521 l 87 260 l 347 260 l 347 174 l 87 174 l 87 87 l 0 87 l 0 521 m 347 521 l 434 521 l 434 260 l 347 260 l 347 521 m 87 87 l 434 87 l 434 0 l 87 0 l 87 87 z "},"ê":{"ha":521,"x_min":0,"x_max":434,"o":"m 174 868 l 260 868 l 260 781 l 174 781 l 174 868 m 87 781 l 174 781 l 174 694 l 87 694 l 87 781 m 260 781 l 347 781 l 347 694 l 260 694 l 260 781 m 87 608 l 347 608 l 347 521 l 87 521 l 87 608 m 0 521 l 87 521 l 87 260 l 347 260 l 347 174 l 87 174 l 87 87 l 0 87 l 0 521 m 347 521 l 434 521 l 434 260 l 347 260 l 347 521 m 87 87 l 434 87 l 434 0 l 87 0 l 87 87 z "},"ë":{"ha":521,"x_min":0,"x_max":434,"o":"m 87 868 l 174 868 l 174 694 l 87 694 l 87 868 m 260 868 l 347 868 l 347 694 l 260 694 l 260 868 m 87 608 l 347 608 l 347 521 l 87 521 l 87 608 m 0 521 l 87 521 l 87 260 l 347 260 l 347 174 l 87 174 l 87 87 l 0 87 l 0 521 m 347 521 l 434 521 l 434 260 l 347 260 l 347 521 m 87 87 l 434 87 l 434 0 l 87 0 l 87 87 z "},"ì":{"ha":347,"x_min":0,"x_max":260,"o":"m 0 868 l 87 868 l 87 781 l 0 781 l 0 868 m 87 781 l 174 781 l 174 694 l 87 694 l 87 781 m 0 608 l 174 608 l 174 87 l 260 87 l 260 0 l 0 0 l 0 87 l 87 87 l 87 521 l 0 521 l 0 608 z "},"í":{"ha":347,"x_min":0,"x_max":260,"o":"m 174 868 l 260 868 l 260 781 l 174 781 l 174 868 m 87 781 l 174 781 l 174 694 l 87 694 l 87 781 m 0 608 l 174 608 l 174 87 l 260 87 l 260 0 l 0 0 l 0 87 l 87 87 l 87 521 l 0 521 l 0 608 z "},"î":{"ha":347,"x_min":0,"x_max":260,"o":"m 87 868 l 174 868 l 174 781 l 87 781 l 87 868 m 0 781 l 87 781 l 87 694 l 0 694 l 0 781 m 174 781 l 260 781 l 260 694 l 174 694 l 174 781 m 0 608 l 174 608 l 174 87 l 260 87 l 260 0 l 0 0 l 0 87 l 87 87 l 87 521 l 0 521 l 0 608 z "},"ï":{"ha":347,"x_min":0,"x_max":260,"o":"m 0 868 l 87 868 l 87 694 l 0 694 l 0 868 m 174 868 l 260 868 l 260 694 l 174 694 l 174 868 m 0 608 l 174 608 l 174 87 l 260 87 l 260 0 l 0 0 l 0 87 l 87 87 l 87 521 l 0 521 l 0 608 z "},"ð":{"ha":608,"x_min":0,"x_max":521,"o":"m 260 868 l 521 868 l 521 781 l 347 781 l 347 694 l 87 694 l 87 781 l 260 781 l 260 868 m 347 694 l 434 694 l 434 608 l 347 608 l 347 694 m 174 608 l 347 608 l 347 521 l 174 521 l 174 608 m 434 608 l 521 608 l 521 174 l 434 174 l 434 434 l 347 434 l 347 521 l 434 521 l 434 608 m 87 521 l 174 521 l 174 434 l 87 434 l 87 521 m 0 434 l 87 434 l 87 174 l 0 174 l 0 434 m 87 174 l 174 174 l 174 87 l 87 87 l 87 174 m 347 174 l 434 174 l 434 87 l 347 87 l 347 174 m 174 87 l 347 87 l 347 0 l 174 0 l 174 87 z "},"ñ":{"ha":521,"x_min":0,"x_max":434,"o":"m 87 868 l 174 868 l 174 781 l 87 781 l 87 868 m 0 781 l 87 781 l 87 694 l 0 694 l 0 781 m 174 781 l 260 781 l 260 694 l 174 694 l 174 781 m 347 781 l 434 781 l 434 694 l 347 694 l 347 781 m 260 694 l 347 694 l 347 521 l 174 521 l 174 608 l 260 608 l 260 694 m 0 608 l 87 608 l 87 521 l 174 521 l 174 434 l 87 434 l 87 0 l 0 0 l 0 608 m 347 521 l 434 521 l 434 0 l 347 0 l 347 521 z "},"ò":{"ha":521,"x_min":0,"x_max":434,"o":"m 87 868 l 174 868 l 174 781 l 87 781 l 87 868 m 174 781 l 260 781 l 260 694 l 174 694 l 174 781 m 87 608 l 347 608 l 347 521 l 87 521 l 87 608 m 0 521 l 87 521 l 87 87 l 0 87 l 0 521 m 347 521 l 434 521 l 434 87 l 347 87 l 347 521 m 87 87 l 347 87 l 347 0 l 87 0 l 87 87 z "},"ó":{"ha":521,"x_min":0,"x_max":434,"o":"m 260 868 l 347 868 l 347 781 l 260 781 l 260 868 m 174 781 l 260 781 l 260 694 l 174 694 l 174 781 m 87 608 l 347 608 l 347 521 l 87 521 l 87 608 m 0 521 l 87 521 l 87 87 l 0 87 l 0 521 m 347 521 l 434 521 l 434 87 l 347 87 l 347 521 m 87 87 l 347 87 l 347 0 l 87 0 l 87 87 z "},"ô":{"ha":521,"x_min":0,"x_max":434,"o":"m 174 868 l 260 868 l 260 781 l 174 781 l 174 868 m 87 781 l 174 781 l 174 694 l 87 694 l 87 781 m 260 781 l 347 781 l 347 694 l 260 694 l 260 781 m 87 608 l 347 608 l 347 521 l 87 521 l 87 608 m 0 521 l 87 521 l 87 87 l 0 87 l 0 521 m 347 521 l 434 521 l 434 87 l 347 87 l 347 521 m 87 87 l 347 87 l 347 0 l 87 0 l 87 87 z "},"õ":{"ha":521,"x_min":0,"x_max":434,"o":"m 87 868 l 174 868 l 174 781 l 87 781 l 87 868 m 0 781 l 87 781 l 87 694 l 0 694 l 0 781 m 174 781 l 260 781 l 260 694 l 174 694 l 174 781 m 347 781 l 434 781 l 434 694 l 347 694 l 347 781 m 260 694 l 347 694 l 347 521 l 87 521 l 87 608 l 260 608 l 260 694 m 0 521 l 87 521 l 87 87 l 0 87 l 0 521 m 347 521 l 434 521 l 434 87 l 347 87 l 347 521 m 87 87 l 347 87 l 347 0 l 87 0 l 87 87 z "},"ö":{"ha":521,"x_min":0,"x_max":434,"o":"m 87 868 l 174 868 l 174 694 l 87 694 l 87 868 m 260 868 l 347 868 l 347 694 l 260 694 l 260 868 m 87 608 l 347 608 l 347 521 l 87 521 l 87 608 m 0 521 l 87 521 l 87 87 l 0 87 l 0 521 m 347 521 l 434 521 l 434 87 l 347 87 l 347 521 m 87 87 l 347 87 l 347 0 l 87 0 l 87 87 z "},"ø":{"ha":521,"x_min":0,"x_max":434,"o":"m 260 694 l 347 694 l 347 521 l 434 521 l 434 87 l 347 87 l 347 434 l 260 434 l 260 521 l 87 521 l 87 608 l 260 608 l 260 694 m 0 521 l 87 521 l 87 174 l 174 174 l 174 87 l 347 87 l 347 0 l 174 0 l 174 -87 l 87 -87 l 87 87 l 0 87 l 0 521 m 174 434 l 260 434 l 260 174 l 174 174 l 174 434 z "},"ù":{"ha":521,"x_min":0,"x_max":434,"o":"m 87 868 l 174 868 l 174 781 l 87 781 l 87 868 m 174 781 l 260 781 l 260 694 l 174 694 l 174 781 m 0 608 l 87 608 l 87 87 l 0 87 l 0 608 m 347 608 l 434 608 l 434 87 l 347 87 l 347 608 m 87 87 l 347 87 l 347 0 l 87 0 l 87 87 z "},"ú":{"ha":521,"x_min":0,"x_max":434,"o":"m 260 868 l 347 868 l 347 781 l 260 781 l 260 868 m 174 781 l 260 781 l 260 694 l 174 694 l 174 781 m 0 608 l 87 608 l 87 87 l 0 87 l 0 608 m 347 608 l 434 608 l 434 87 l 347 87 l 347 608 m 87 87 l 347 87 l 347 0 l 87 0 l 87 87 z "},"û":{"ha":521,"x_min":0,"x_max":434,"o":"m 174 868 l 260 868 l 260 781 l 174 781 l 174 868 m 87 781 l 174 781 l 174 694 l 87 694 l 87 781 m 260 781 l 347 781 l 347 694 l 260 694 l 260 781 m 0 608 l 87 608 l 87 87 l 0 87 l 0 608 m 347 608 l 434 608 l 434 87 l 347 87 l 347 608 m 87 87 l 347 87 l 347 0 l 87 0 l 87 87 z "},"ü":{"ha":521,"x_min":0,"x_max":434,"o":"m 87 868 l 174 868 l 174 694 l 87 694 l 87 868 m 260 868 l 347 868 l 347 694 l 260 694 l 260 868 m 0 608 l 87 608 l 87 87 l 0 87 l 0 608 m 347 608 l 434 608 l 434 87 l 347 87 l 347 608 m 87 87 l 347 87 l 347 0 l 87 0 l 87 87 z "},"ý":{"ha":521,"x_min":0,"x_max":434,"o":"m 260 868 l 347 868 l 347 781 l 260 781 l 260 868 m 174 781 l 260 781 l 260 694 l 174 694 l 174 781 m 0 608 l 87 608 l 87 260 l 0 260 l 0 608 m 347 608 l 434 608 l 434 260 l 347 260 l 347 608 m 87 260 l 174 260 l 174 87 l 87 87 l 87 260 m 260 260 l 347 260 l 347 87 l 260 87 l 260 260 m 174 87 l 260 87 l 260 -87 l 174 -87 l 174 87 m 87 -87 l 174 -87 l 174 -260 l 87 -260 l 87 -87 z "},"þ":{"ha":521,"x_min":0,"x_max":434,"o":"m 0 781 l 87 781 l 87 521 l 174 521 l 174 434 l 87 434 l 87 87 l 347 87 l 347 0 l 87 0 l 87 -174 l 0 -174 l 0 781 m 174 608 l 347 608 l 347 521 l 174 521 l 174 608 m 347 521 l 434 521 l 434 87 l 347 87 l 347 521 z "},"ÿ":{"ha":521,"x_min":0,"x_max":434,"o":"m 87 868 l 174 868 l 174 694 l 87 694 l 87 868 m 260 868 l 347 868 l 347 694 l 260 694 l 260 868 m 0 608 l 87 608 l 87 260 l 0 260 l 0 608 m 347 608 l 434 608 l 434 260 l 347 260 l 347 608 m 87 260 l 174 260 l 174 87 l 87 87 l 87 260 m 260 260 l 347 260 l 347 87 l 260 87 l 260 260 m 174 87 l 260 87 l 260 -87 l 174 -87 l 174 87 m 87 -87 l 174 -87 l 174 -260 l 87 -260 l 87 -87 z "},"Œ":{"ha":694,"x_min":0,"x_max":608,"o":"m 87 868 l 608 868 l 608 781 l 347 781 l 347 521 l 521 521 l 521 434 l 347 434 l 347 87 l 608 87 l 608 0 l 87 0 l 87 87 l 260 87 l 260 781 l 87 781 l 87 868 m 0 781 l 87 781 l 87 87 l 0 87 l 0 781 z "},"œ":{"ha":694,"x_min":0,"x_max":608,"o":"m 87 608 l 521 608 l 521 521 l 347 521 l 347 260 l 521 260 l 521 174 l 347 174 l 347 87 l 260 87 l 260 521 l 87 521 l 87 608 m 0 521 l 87 521 l 87 87 l 0 87 l 0 521 m 521 521 l 608 521 l 608 260 l 521 260 l 521 521 m 87 87 l 260 87 l 260 0 l 87 0 l 87 87 m 347 87 l 608 87 l 608 0 l 347 0 l 347 87 z "},"Ÿ":{"ha":521,"x_min":0,"x_max":434,"o":"m 87 1128 l 174 1128 l 174 955 l 87 955 l 87 1128 m 260 1128 l 347 1128 l 347 955 l 260 955 l 260 1128 m 0 868 l 87 868 l 87 521 l 0 521 l 0 868 m 347 868 l 434 868 l 434 521 l 347 521 l 347 868 m 87 521 l 174 521 l 174 347 l 87 347 l 87 521 m 260 521 l 347 521 l 347 347 l 260 347 l 260 521 m 174 347 l 260 347 l 260 174 l 174 174 l 174 347 m 87 174 l 174 174 l 174 0 l 87 0 l 87 174 z "},"Ё":{"ha":521,"x_min":0,"x_max":434,"o":"m 87 1128 l 174 1128 l 174 955 l 87 955 l 87 1128 m 260 1128 l 347 1128 l 347 955 l 260 955 l 260 1128 m 0 868 l 434 868 l 434 781 l 87 781 l 87 521 l 347 521 l 347 434 l 87 434 l 87 87 l 434 87 l 434 0 l 0 0 l 0 868 z "},"А":{"ha":521,"x_min":0,"x_max":434,"o":"m 174 868 l 260 868 l 260 608 l 174 608 l 174 868 m 87 608 l 174 608 l 174 347 l 260 347 l 260 608 l 347 608 l 347 347 l 434 347 l 434 0 l 347 0 l 347 260 l 87 260 l 87 0 l 0 0 l 0 347 l 87 347 l 87 608 z "},"Б":{"ha":521,"x_min":0,"x_max":434,"o":"m 0 868 l 434 868 l 434 781 l 87 781 l 87 521 l 347 521 l 347 434 l 87 434 l 87 87 l 347 87 l 347 0 l 0 0 l 0 868 m 347 434 l 434 434 l 434 87 l 347 87 l 347 434 z "},"В":{"ha":521,"x_min":0,"x_max":434,"o":"m 0 868 l 347 868 l 347 781 l 87 781 l 87 521 l 347 521 l 347 434 l 87 434 l 87 87 l 347 87 l 347 0 l 0 0 l 0 868 m 347 781 l 434 781 l 434 521 l 347 521 l 347 781 m 347 434 l 434 434 l 434 87 l 347 87 l 347 434 z "},"Г":{"ha":521,"x_min":0,"x_max":434,"o":"m 0 868 l 434 868 l 434 781 l 87 781 l 87 0 l 0 0 l 0 868 z "},"Д":{"ha":694,"x_min":0,"x_max":608,"o":"m 174 868 l 521 868 l 521 87 l 608 87 l 608 -174 l 521 -174 l 521 0 l 87 0 l 87 -174 l 0 -174 l 0 87 l 87 87 l 87 260 l 174 260 l 174 87 l 434 87 l 434 781 l 260 781 l 260 260 l 174 260 l 174 868 z "},"Е":{"ha":521,"x_min":0,"x_max":434,"o":"m 0 868 l 434 868 l 434 781 l 87 781 l 87 521 l 347 521 l 347 434 l 87 434 l 87 87 l 434 87 l 434 0 l 0 0 l 0 868 z "},"Ж":{"ha":694,"x_min":0,"x_max":608,"o":"m 0 868 l 87 868 l 87 694 l 0 694 l 0 868 m 260 868 l 347 868 l 347 521 l 434 521 l 434 434 l 347 434 l 347 0 l 260 0 l 260 434 l 174 434 l 174 521 l 260 521 l 260 868 m 521 868 l 608 868 l 608 694 l 521 694 l 521 868 m 87 694 l 174 694 l 174 521 l 87 521 l 87 694 m 434 694 l 521 694 l 521 521 l 434 521 l 434 694 m 87 434 l 174 434 l 174 260 l 87 260 l 87 434 m 434 434 l 521 434 l 521 260 l 434 260 l 434 434 m 0 260 l 87 260 l 87 0 l 0 0 l 0 260 m 521 260 l 608 260 l 608 0 l 521 0 l 521 260 z "},"З":{"ha":521,"x_min":0,"x_max":434,"o":"m 0 868 l 347 868 l 347 781 l 0 781 l 0 868 m 347 781 l 434 781 l 434 521 l 347 521 l 347 781 m 87 521 l 347 521 l 347 434 l 87 434 l 87 521 m 347 434 l 434 434 l 434 87 l 347 87 l 347 434 m 0 87 l 347 87 l 347 0 l 0 0 l 0 87 z "},"И":{"ha":521,"x_min":0,"x_max":434,"o":"m 0 868 l 87 868 l 87 347 l 174 347 l 174 174 l 87 174 l 87 0 l 0 0 l 0 868 m 347 868 l 434 868 l 434 0 l 347 0 l 347 521 l 260 521 l 260 694 l 347 694 l 347 868 m 174 521 l 260 521 l 260 347 l 174 347 l 174 521 z "},"Й":{"ha":521,"x_min":0,"x_max":434,"o":"m 87 1128 l 174 1128 l 174 1042 l 260 1042 l 260 1128 l 347 1128 l 347 955 l 87 955 l 87 1128 m 0 868 l 87 868 l 87 347 l 174 347 l 174 174 l 87 174 l 87 0 l 0 0 l 0 868 m 347 868 l 434 868 l 434 0 l 347 0 l 347 521 l 260 521 l 260 694 l 347 694 l 347 868 m 174 521 l 260 521 l 260 347 l 174 347 l 174 521 z "},"К":{"ha":521,"x_min":0,"x_max":434,"o":"m 0 868 l 87 868 l 87 347 l 174 347 l 174 174 l 87 174 l 87 0 l 0 0 l 0 868 m 347 868 l 434 868 l 434 694 l 347 694 l 347 868 m 260 694 l 347 694 l 347 521 l 260 521 l 260 694 m 174 521 l 260 521 l 260 347 l 174 347 l 174 521 m 260 347 l 347 347 l 347 174 l 260 174 l 260 347 m 347 174 l 434 174 l 434 0 l 347 0 l 347 174 z "},"Л":{"ha":608,"x_min":0,"x_max":521,"o":"m 174 868 l 521 868 l 521 0 l 434 0 l 434 781 l 260 781 l 260 87 l 174 87 l 174 868 m 0 87 l 174 87 l 174 0 l 0 0 l 0 87 z "},"М":{"ha":521,"x_min":0,"x_max":434,"o":"m 0 868 l 87 868 l 87 694 l 174 694 l 174 521 l 87 521 l 87 0 l 0 0 l 0 868 m 347 868 l 434 868 l 434 0 l 347 0 l 347 521 l 260 521 l 260 694 l 347 694 l 347 868 m 174 521 l 260 521 l 260 347 l 174 347 l 174 521 z "},"Н":{"ha":521,"x_min":0,"x_max":434,"o":"m 0 868 l 87 868 l 87 521 l 347 521 l 347 868 l 434 868 l 434 0 l 347 0 l 347 434 l 87 434 l 87 0 l 0 0 l 0 868 z "},"О":{"ha":521,"x_min":0,"x_max":434,"o":"m 87 868 l 347 868 l 347 781 l 87 781 l 87 868 m 0 781 l 87 781 l 87 87 l 0 87 l 0 781 m 347 781 l 434 781 l 434 87 l 347 87 l 347 781 m 87 87 l 347 87 l 347 0 l 87 0 l 87 87 z "},"П":{"ha":521,"x_min":0,"x_max":434,"o":"m 0 868 l 434 868 l 434 0 l 347 0 l 347 781 l 87 781 l 87 0 l 0 0 l 0 868 z "},"Р":{"ha":521,"x_min":0,"x_max":434,"o":"m 0 868 l 347 868 l 347 781 l 87 781 l 87 434 l 347 434 l 347 347 l 87 347 l 87 0 l 0 0 l 0 868 m 347 781 l 434 781 l 434 434 l 347 434 l 347 781 z "},"С":{"ha":521,"x_min":0,"x_max":434,"o":"m 174 868 l 347 868 l 347 781 l 174 781 l 174 868 m 87 781 l 174 781 l 174 694 l 87 694 l 87 781 m 347 781 l 434 781 l 434 694 l 347 694 l 347 781 m 0 694 l 87 694 l 87 174 l 0 174 l 0 694 m 87 174 l 174 174 l 174 87 l 87 87 l 87 174 m 347 174 l 434 174 l 434 87 l 347 87 l 347 174 m 174 87 l 347 87 l 347 0 l 174 0 l 174 87 z "},"Т":{"ha":521,"x_min":0,"x_max":434,"o":"m 0 868 l 434 868 l 434 781 l 260 781 l 260 0 l 174 0 l 174 781 l 0 781 l 0 868 z "},"У":{"ha":521,"x_min":0,"x_max":434,"o":"m 0 868 l 87 868 l 87 521 l 0 521 l 0 868 m 347 868 l 434 868 l 434 521 l 347 521 l 347 868 m 87 521 l 174 521 l 174 347 l 87 347 l 87 521 m 260 521 l 347 521 l 347 347 l 260 347 l 260 521 m 174 347 l 260 347 l 260 174 l 174 174 l 174 347 m 87 174 l 174 174 l 174 0 l 87 0 l 87 174 z "},"Ф":{"ha":521,"x_min":0,"x_max":434,"o":"m 174 868 l 260 868 l 260 781 l 347 781 l 347 694 l 260 694 l 260 174 l 347 174 l 347 87 l 260 87 l 260 0 l 174 0 l 174 87 l 87 87 l 87 174 l 174 174 l 174 694 l 87 694 l 87 781 l 174 781 l 174 868 m 0 694 l 87 694 l 87 174 l 0 174 l 0 694 m 347 694 l 434 694 l 434 174 l 347 174 l 347 694 z "},"Х":{"ha":521,"x_min":0,"x_max":434,"o":"m 0 868 l 87 868 l 87 694 l 0 694 l 0 868 m 347 868 l 434 868 l 434 694 l 347 694 l 347 868 m 87 694 l 174 694 l 174 521 l 87 521 l 87 694 m 260 694 l 347 694 l 347 521 l 260 521 l 260 694 m 174 521 l 260 521 l 260 434 l 174 434 l 174 521 m 87 434 l 174 434 l 174 260 l 87 260 l 87 434 m 260 434 l 347 434 l 347 260 l 260 260 l 260 434 m 0 260 l 87 260 l 87 0 l 0 0 l 0 260 m 347 260 l 434 260 l 434 0 l 347 0 l 347 260 z "},"Ц":{"ha":608,"x_min":0,"x_max":521,"o":"m 0 868 l 87 868 l 87 87 l 347 87 l 347 868 l 434 868 l 434 87 l 521 87 l 521 -174 l 434 -174 l 434 0 l 0 0 l 0 868 z "},"Ч":{"ha":521,"x_min":0,"x_max":434,"o":"m 0 868 l 87 868 l 87 434 l 0 434 l 0 868 m 347 868 l 434 868 l 434 0 l 347 0 l 347 347 l 87 347 l 87 434 l 347 434 l 347 868 z "},"Ш":{"ha":521,"x_min":0,"x_max":434,"o":"m 0 868 l 87 868 l 87 87 l 174 87 l 174 868 l 260 868 l 260 87 l 347 87 l 347 868 l 434 868 l 434 0 l 0 0 l 0 868 z "},"Щ":{"ha":608,"x_min":0,"x_max":521,"o":"m 0 868 l 87 868 l 87 87 l 174 87 l 174 868 l 260 868 l 260 87 l 347 87 l 347 868 l 434 868 l 434 87 l 521 87 l 521 -174 l 434 -174 l 434 0 l 0 0 l 0 868 z "},"Ъ":{"ha":521,"x_min":0,"x_max":434,"o":"m 0 868 l 174 868 l 174 521 l 347 521 l 347 434 l 174 434 l 174 87 l 347 87 l 347 0 l 87 0 l 87 781 l 0 781 l 0 868 m 347 434 l 434 434 l 434 87 l 347 87 l 347 434 z "},"Ы":{"ha":608,"x_min":0,"x_max":521,"o":"m 0 868 l 87 868 l 87 521 l 260 521 l 260 434 l 87 434 l 87 87 l 260 87 l 260 0 l 0 0 l 0 868 m 434 868 l 521 868 l 521 0 l 434 0 l 434 868 m 260 434 l 347 434 l 347 87 l 260 87 l 260 434 z "},"Ь":{"ha":521,"x_min":0,"x_max":434,"o":"m 0 868 l 87 868 l 87 521 l 347 521 l 347 434 l 87 434 l 87 87 l 347 87 l 347 0 l 0 0 l 0 868 m 347 434 l 434 434 l 434 87 l 347 87 l 347 434 z "},"Э":{"ha":521,"x_min":0,"x_max":434,"o":"m 0 868 l 260 868 l 260 781 l 0 781 l 0 868 m 260 781 l 347 781 l 347 694 l 260 694 l 260 781 m 347 694 l 434 694 l 434 174 l 347 174 l 347 434 l 87 434 l 87 521 l 347 521 l 347 694 m 260 174 l 347 174 l 347 87 l 260 87 l 260 174 m 0 87 l 260 87 l 260 0 l 0 0 l 0 87 z "},"Ю":{"ha":608,"x_min":0,"x_max":521,"o":"m 0 868 l 87 868 l 87 521 l 174 521 l 174 781 l 260 781 l 260 87 l 174 87 l 174 434 l 87 434 l 87 0 l 0 0 l 0 868 m 260 868 l 434 868 l 434 781 l 260 781 l 260 868 m 434 781 l 521 781 l 521 87 l 434 87 l 434 781 m 260 87 l 434 87 l 434 0 l 260 0 l 260 87 z "},"Я":{"ha":521,"x_min":0,"x_max":434,"o":"m 87 868 l 434 868 l 434 0 l 347 0 l 347 260 l 174 260 l 174 174 l 87 174 l 87 347 l 347 347 l 347 781 l 87 781 l 87 868 m 0 781 l 87 781 l 87 347 l 0 347 l 0 781 m 0 174 l 87 174 l 87 0 l 0 0 l 0 174 z "},"а":{"ha":521,"x_min":0,"x_max":434,"o":"m 87 608 l 347 608 l 347 521 l 87 521 l 87 608 m 347 521 l 434 521 l 434 87 l 347 87 l 347 347 l 87 347 l 87 434 l 347 434 l 347 521 m 0 347 l 87 347 l 87 87 l 0 87 l 0 347 m 87 87 l 347 87 l 347 0 l 87 0 l 87 87 z "},"б":{"ha":521,"x_min":0,"x_max":434,"o":"m 174 868 l 434 868 l 434 781 l 174 781 l 174 868 m 87 781 l 174 781 l 174 694 l 87 694 l 87 781 m 0 694 l 87 694 l 87 521 l 174 521 l 174 434 l 87 434 l 87 87 l 0 87 l 0 694 m 174 608 l 347 608 l 347 521 l 174 521 l 174 608 m 347 521 l 434 521 l 434 87 l 347 87 l 347 521 m 87 87 l 347 87 l 347 0 l 87 0 l 87 87 z "},"в":{"ha":521,"x_min":0,"x_max":434,"o":"m 0 608 l 347 608 l 347 521 l 87 521 l 87 347 l 347 347 l 347 260 l 87 260 l 87 87 l 347 87 l 347 0 l 0 0 l 0 608 m 347 521 l 434 521 l 434 347 l 347 347 l 347 521 m 347 260 l 434 260 l 434 87 l 347 87 l 347 260 z "},"г":{"ha":521,"x_min":0,"x_max":434,"o":"m 0 608 l 434 608 l 434 521 l 87 521 l 87 0 l 0 0 l 0 608 z "},"д":{"ha":694,"x_min":0,"x_max":608,"o":"m 174 608 l 521 608 l 521 87 l 608 87 l 608 -174 l 521 -174 l 521 0 l 87 0 l 87 -174 l 0 -174 l 0 87 l 87 87 l 87 260 l 174 260 l 174 87 l 434 87 l 434 521 l 260 521 l 260 260 l 174 260 l 174 608 z "},"е":{"ha":521,"x_min":0,"x_max":434,"o":"m 87 608 l 347 608 l 347 521 l 87 521 l 87 608 m 0 521 l 87 521 l 87 260 l 347 260 l 347 174 l 87 174 l 87 87 l 0 87 l 0 521 m 347 521 l 434 521 l 434 260 l 347 260 l 347 521 m 87 87 l 434 87 l 434 0 l 87 0 l 87 87 z "},"ж":{"ha":694,"x_min":0,"x_max":608,"o":"m 0 608 l 87 608 l 87 434 l 0 434 l 0 608 m 260 608 l 347 608 l 347 347 l 434 347 l 434 260 l 347 260 l 347 0 l 260 0 l 260 260 l 174 260 l 174 347 l 260 347 l 260 608 m 521 608 l 608 608 l 608 434 l 521 434 l 521 608 m 87 434 l 174 434 l 174 347 l 87 347 l 87 434 m 434 434 l 521 434 l 521 347 l 434 347 l 434 434 m 87 260 l 174 260 l 174 174 l 87 174 l 87 260 m 434 260 l 521 260 l 521 174 l 434 174 l 434 260 m 0 174 l 87 174 l 87 0 l 0 0 l 0 174 m 521 174 l 608 174 l 608 0 l 521 0 l 521 174 z "},"з":{"ha":521,"x_min":0,"x_max":434,"o":"m 0 608 l 347 608 l 347 521 l 0 521 l 0 608 m 347 521 l 434 521 l 434 347 l 347 347 l 347 521 m 87 347 l 347 347 l 347 260 l 87 260 l 87 347 m 347 260 l 434 260 l 434 87 l 347 87 l 347 260 m 0 87 l 347 87 l 347 0 l 0 0 l 0 87 z "},"и":{"ha":521,"x_min":0,"x_max":434,"o":"m 0 608 l 87 608 l 87 174 l 174 174 l 174 0 l 0 0 l 0 608 m 347 608 l 434 608 l 434 0 l 347 0 l 347 347 l 260 347 l 260 521 l 347 521 l 347 608 m 174 347 l 260 347 l 260 174 l 174 174 l 174 347 z "},"й":{"ha":521,"x_min":0,"x_max":434,"o":"m 87 868 l 174 868 l 174 781 l 260 781 l 260 868 l 347 868 l 347 694 l 87 694 l 87 868 m 0 608 l 87 608 l 87 174 l 174 174 l 174 0 l 0 0 l 0 608 m 347 608 l 434 608 l 434 0 l 347 0 l 347 347 l 260 347 l 260 521 l 347 521 l 347 608 m 174 347 l 260 347 l 260 174 l 174 174 l 174 347 z "},"к":{"ha":521,"x_min":0,"x_max":434,"o":"m 0 608 l 87 608 l 87 347 l 174 347 l 174 260 l 87 260 l 87 0 l 0 0 l 0 608 m 347 608 l 434 608 l 434 521 l 347 521 l 347 608 m 260 521 l 347 521 l 347 434 l 260 434 l 260 521 m 174 434 l 260 434 l 260 347 l 174 347 l 174 434 m 174 260 l 260 260 l 260 174 l 174 174 l 174 260 m 260 174 l 347 174 l 347 87 l 260 87 l 260 174 m 347 87 l 434 87 l 434 0 l 347 0 l 347 87 z "},"л":{"ha":608,"x_min":0,"x_max":521,"o":"m 174 608 l 521 608 l 521 0 l 434 0 l 434 521 l 260 521 l 260 87 l 174 87 l 174 608 m 0 87 l 174 87 l 174 0 l 0 0 l 0 87 z "},"м":{"ha":521,"x_min":0,"x_max":434,"o":"m 0 608 l 87 608 l 87 521 l 174 521 l 174 347 l 87 347 l 87 0 l 0 0 l 0 608 m 347 608 l 434 608 l 434 0 l 347 0 l 347 347 l 260 347 l 260 521 l 347 521 l 347 608 m 174 347 l 260 347 l 260 174 l 174 174 l 174 347 z "},"н":{"ha":521,"x_min":0,"x_max":434,"o":"m 0 608 l 87 608 l 87 347 l 347 347 l 347 608 l 434 608 l 434 0 l 347 0 l 347 260 l 87 260 l 87 0 l 0 0 l 0 608 z "},"о":{"ha":521,"x_min":0,"x_max":434,"o":"m 87 608 l 347 608 l 347 521 l 87 521 l 87 608 m 0 521 l 87 521 l 87 87 l 0 87 l 0 521 m 347 521 l 434 521 l 434 87 l 347 87 l 347 521 m 87 87 l 347 87 l 347 0 l 87 0 l 87 87 z "},"п":{"ha":521,"x_min":0,"x_max":434,"o":"m 0 608 l 434 608 l 434 0 l 347 0 l 347 521 l 87 521 l 87 0 l 0 0 l 0 608 z "},"р":{"ha":521,"x_min":0,"x_max":434,"o":"m 0 608 l 87 608 l 87 521 l 174 521 l 174 434 l 87 434 l 87 174 l 174 174 l 174 87 l 87 87 l 87 -260 l 0 -260 l 0 608 m 174 608 l 347 608 l 347 521 l 174 521 l 174 608 m 347 521 l 434 521 l 434 87 l 347 87 l 347 521 m 174 87 l 347 87 l 347 0 l 174 0 l 174 87 z "},"с":{"ha":521,"x_min":0,"x_max":434,"o":"m 174 608 l 347 608 l 347 521 l 174 521 l 174 608 m 87 521 l 174 521 l 174 434 l 87 434 l 87 521 m 347 521 l 434 521 l 434 434 l 347 434 l 347 521 m 0 434 l 87 434 l 87 174 l 0 174 l 0 434 m 87 174 l 174 174 l 174 87 l 87 87 l 87 174 m 347 174 l 434 174 l 434 87 l 347 87 l 347 174 m 174 87 l 347 87 l 347 0 l 174 0 l 174 87 z "},"т":{"ha":521,"x_min":0,"x_max":434,"o":"m 0 608 l 434 608 l 434 521 l 260 521 l 260 0 l 174 0 l 174 521 l 0 521 l 0 608 z "},"у":{"ha":521,"x_min":0,"x_max":434,"o":"m 0 608 l 87 608 l 87 260 l 0 260 l 0 608 m 347 608 l 434 608 l 434 260 l 347 260 l 347 608 m 87 260 l 174 260 l 174 87 l 87 87 l 87 260 m 260 260 l 347 260 l 347 87 l 260 87 l 260 260 m 174 87 l 260 87 l 260 -87 l 174 -87 l 174 87 m 87 -87 l 174 -87 l 174 -260 l 87 -260 l 87 -87 z "},"ф":{"ha":521,"x_min":0,"x_max":434,"o":"m 174 781 l 260 781 l 260 608 l 347 608 l 347 521 l 260 521 l 260 87 l 347 87 l 347 0 l 260 0 l 260 -174 l 174 -174 l 174 0 l 87 0 l 87 87 l 174 87 l 174 521 l 87 521 l 87 608 l 174 608 l 174 781 m 0 521 l 87 521 l 87 87 l 0 87 l 0 521 m 347 521 l 434 521 l 434 87 l 347 87 l 347 521 z "},"х":{"ha":521,"x_min":0,"x_max":434,"o":"m 0 608 l 87 608 l 87 434 l 0 434 l 0 608 m 347 608 l 434 608 l 434 434 l 347 434 l 347 608 m 87 434 l 174 434 l 174 347 l 87 347 l 87 434 m 260 434 l 347 434 l 347 347 l 260 347 l 260 434 m 174 347 l 260 347 l 260 260 l 174 260 l 174 347 m 87 260 l 174 260 l 174 174 l 87 174 l 87 260 m 260 260 l 347 260 l 347 174 l 260 174 l 260 260 m 0 174 l 87 174 l 87 0 l 0 0 l 0 174 m 347 174 l 434 174 l 434 0 l 347 0 l 347 174 z "},"ц":{"ha":608,"x_min":0,"x_max":521,"o":"m 0 608 l 87 608 l 87 87 l 347 87 l 347 608 l 434 608 l 434 87 l 521 87 l 521 -174 l 434 -174 l 434 0 l 0 0 l 0 608 z "},"ч":{"ha":521,"x_min":0,"x_max":434,"o":"m 0 608 l 87 608 l 87 260 l 0 260 l 0 608 m 347 608 l 434 608 l 434 0 l 347 0 l 347 174 l 87 174 l 87 260 l 347 260 l 347 608 z "},"ш":{"ha":521,"x_min":0,"x_max":434,"o":"m 0 608 l 87 608 l 87 87 l 174 87 l 174 608 l 260 608 l 260 87 l 347 87 l 347 608 l 434 608 l 434 0 l 0 0 l 0 608 z "},"щ":{"ha":608,"x_min":0,"x_max":521,"o":"m 0 608 l 87 608 l 87 87 l 174 87 l 174 608 l 260 608 l 260 87 l 347 87 l 347 608 l 434 608 l 434 87 l 521 87 l 521 -174 l 434 -174 l 434 0 l 0 0 l 0 608 z "},"ъ":{"ha":521,"x_min":0,"x_max":434,"o":"m 0 608 l 174 608 l 174 347 l 347 347 l 347 260 l 174 260 l 174 87 l 347 87 l 347 0 l 87 0 l 87 521 l 0 521 l 0 608 m 347 260 l 434 260 l 434 87 l 347 87 l 347 260 z "},"ы":{"ha":608,"x_min":0,"x_max":521,"o":"m 0 608 l 87 608 l 87 347 l 260 347 l 260 260 l 87 260 l 87 87 l 260 87 l 260 0 l 0 0 l 0 608 m 434 608 l 521 608 l 521 0 l 434 0 l 434 608 m 260 260 l 347 260 l 347 87 l 260 87 l 260 260 z "},"ь":{"ha":521,"x_min":0,"x_max":434,"o":"m 0 608 l 87 608 l 87 347 l 347 347 l 347 260 l 87 260 l 87 87 l 347 87 l 347 0 l 0 0 l 0 608 m 347 260 l 434 260 l 434 87 l 347 87 l 347 260 z "},"э":{"ha":521,"x_min":0,"x_max":434,"o":"m 0 608 l 260 608 l 260 521 l 0 521 l 0 608 m 260 521 l 347 521 l 347 434 l 260 434 l 260 521 m 347 434 l 434 434 l 434 174 l 347 174 l 347 260 l 87 260 l 87 347 l 347 347 l 347 434 m 260 174 l 347 174 l 347 87 l 260 87 l 260 174 m 0 87 l 260 87 l 260 0 l 0 0 l 0 87 z "},"ю":{"ha":608,"x_min":0,"x_max":521,"o":"m 0 608 l 87 608 l 87 347 l 174 347 l 174 521 l 260 521 l 260 87 l 174 87 l 174 260 l 87 260 l 87 0 l 0 0 l 0 608 m 260 608 l 434 608 l 434 521 l 260 521 l 260 608 m 434 521 l 521 521 l 521 87 l 434 87 l 434 521 m 260 87 l 434 87 l 434 0 l 260 0 l 260 87 z "},"я":{"ha":521,"x_min":0,"x_max":434,"o":"m 87 608 l 434 608 l 434 0 l 347 0 l 347 260 l 174 260 l 174 174 l 87 174 l 87 347 l 347 347 l 347 521 l 87 521 l 87 608 m 0 521 l 87 521 l 87 347 l 0 347 l 0 521 m 0 174 l 87 174 l 87 0 l 0 0 l 0 174 z "},"ё":{"ha":521,"x_min":0,"x_max":434,"o":"m 87 868 l 174 868 l 174 694 l 87 694 l 87 868 m 260 868 l 347 868 l 347 694 l 260 694 l 260 868 m 87 608 l 347 608 l 347 521 l 87 521 l 87 608 m 0 521 l 87 521 l 87 260 l 347 260 l 347 174 l 87 174 l 87 87 l 0 87 l 0 521 m 347 521 l 434 521 l 434 260 l 347 260 l 347 521 m 87 87 l 434 87 l 434 0 l 87 0 l 87 87 z "},"ẞ":{"ha":608,"x_min":0,"x_max":521,"o":"m 87 868 l 347 868 l 347 781 l 87 781 l 87 868 m 0 781 l 87 781 l 87 0 l 0 0 l 0 781 m 347 781 l 434 781 l 434 608 l 347 608 l 347 781 m 260 608 l 347 608 l 347 434 l 174 434 l 174 521 l 260 521 l 260 608 m 347 434 l 434 434 l 434 347 l 347 347 l 347 434 m 434 347 l 521 347 l 521 87 l 434 87 l 434 347 m 174 87 l 434 87 l 434 0 l 174 0 l 174 87 z "},"‘":{"ha":260,"x_min":0,"x_max":174,"o":"m 87 868 l 174 868 l 174 781 l 87 781 l 87 868 m 0 781 l 87 781 l 87 694 l 174 694 l 174 608 l 0 608 l 0 781 z "},"’":{"ha":260,"x_min":0,"x_max":174,"o":"m 0 868 l 174 868 l 174 694 l 87 694 l 87 781 l 0 781 l 0 868 m 0 694 l 87 694 l 87 608 l 0 608 l 0 694 z "},"‚":{"ha":260,"x_min":0,"x_max":174,"o":"m 0 87 l 174 87 l 174 -87 l 87 -87 l 87 0 l 0 0 l 0 87 m 0 -87 l 87 -87 l 87 -174 l 0 -174 l 0 -87 z "},"“":{"ha":434,"x_min":0,"x_max":347,"o":"m 87 868 l 174 868 l 174 781 l 87 781 l 87 868 m 260 868 l 347 868 l 347 781 l 260 781 l 260 868 m 0 781 l 87 781 l 87 608 l 0 608 l 0 781 m 174 781 l 260 781 l 260 694 l 347 694 l 347 608 l 174 608 l 174 781 z "},"”":{"ha":434,"x_min":0,"x_max":347,"o":"m 0 868 l 174 868 l 174 694 l 87 694 l 87 781 l 0 781 l 0 868 m 260 868 l 347 868 l 347 694 l 260 694 l 260 868 m 0 694 l 87 694 l 87 608 l 0 608 l 0 694 m 174 694 l 260 694 l 260 608 l 174 608 l 174 694 z "},"„":{"ha":434,"x_min":0,"x_max":347,"o":"m 0 87 l 174 87 l 174 -87 l 87 -87 l 87 0 l 0 0 l 0 87 m 260 87 l 347 87 l 347 -87 l 260 -87 l 260 87 m 0 -87 l 87 -87 l 87 -174 l 0 -174 l 0 -87 m 174 -87 l 260 -87 l 260 -174 l 174 -174 l 174 -87 z "},"•":{"ha":347,"x_min":0,"x_max":260,"o":"m 0 434 l 260 434 l 260 174 l 0 174 l 0 434 z "},"…":{"ha":521,"x_min":0,"x_max":434,"o":"m 0 87 l 87 87 l 87 0 l 0 0 l 0 87 m 174 87 l 260 87 l 260 0 l 174 0 l 174 87 m 347 87 l 434 87 l 434 0 l 347 0 l 347 87 z "},"‹":{"ha":347,"x_min":0,"x_max":260,"o":"m 174 608 l 260 608 l 260 521 l 174 521 l 174 608 m 87 521 l 174 521 l 174 434 l 87 434 l 87 521 m 0 434 l 87 434 l 87 347 l 0 347 l 0 434 m 87 347 l 174 347 l 174 260 l 87 260 l 87 347 m 174 260 l 260 260 l 260 174 l 174 174 l 174 260 z "},"›":{"ha":347,"x_min":0,"x_max":260,"o":"m 0 608 l 87 608 l 87 521 l 0 521 l 0 608 m 87 521 l 174 521 l 174 434 l 87 434 l 87 521 m 174 434 l 260 434 l 260 347 l 174 347 l 174 434 m 87 347 l 174 347 l 174 260 l 87 260 l 87 347 m 0 260 l 87 260 l 87 174 l 0 174 l 0 260 z "},"€":{"ha":694,"x_min":0,"x_max":608,"o":"m 260 868 l 521 868 l 521 781 l 260 781 l 260 868 m 174 781 l 260 781 l 260 694 l 174 694 l 174 781 m 521 781 l 608 781 l 608 694 l 521 694 l 521 781 m 87 694 l 174 694 l 174 608 l 434 608 l 434 521 l 174 521 l 174 434 l 434 434 l 434 347 l 174 347 l 174 174 l 87 174 l 87 347 l 0 347 l 0 434 l 87 434 l 87 521 l 0 521 l 0 608 l 87 608 l 87 694 m 174 174 l 260 174 l 260 87 l 174 87 l 174 174 m 521 174 l 608 174 l 608 87 l 521 87 l 521 174 m 260 87 l 521 87 l 521 0 l 260 0 l 260 87 z "},"™":{"ha":781,"x_min":0,"x_max":694,"o":"m 0 781 l 260 781 l 260 694 l 174 694 l 174 434 l 87 434 l 87 694 l 0 694 l 0 781 m 347 781 l 434 781 l 434 694 l 521 694 l 521 781 l 608 781 l 608 608 l 521 608 l 521 521 l 434 521 l 434 608 l 347 608 l 347 781 m 260 608 l 347 608 l 347 434 l 260 434 l 260 608 m 608 608 l 694 608 l 694 434 l 608 434 l 608 608 z "}}}
